<svg xmlns="http://www.w3.org/2000/svg" viewBox="0 0 24 24" stroke="currentColor" stroke-width="2" stroke-linecap="round" stroke-linejoin="round" class="feather feather-alert-triangle"><path d="M11.646 1.925a3.53 3.53 0 0 0-1.191.4c-.304.184-.708.56-.891.831C9.379 3.429.964 17.474.849 17.7.65 18.094.58 18.432.58 19c0 .454.015.588.094.84A3.049 3.049 0 0 0 2.8 21.907c.248.07.671.073 9.2.073 10.049 0 9.106.029 9.781-.302.748-.367 1.283-1.004 1.545-1.839.079-.252.094-.384.094-.839 0-.568-.07-.905-.269-1.3-.045-.088-2.025-3.404-4.4-7.369-3.424-5.714-4.369-7.262-4.557-7.468a3.01 3.01 0 0 0-2.548-.938m.774 2.074c.088.039.217.132.287.206.124.132 8.511 14.097 8.658 14.415.231.503-.095 1.188-.636 1.338-.208.058-17.25.058-17.458 0-.541-.15-.867-.835-.636-1.338.148-.322 8.535-14.284 8.658-14.413.299-.314.715-.391 1.127-.208m-.777 4.07a1.118 1.118 0 0 0-.343.229c-.303.303-.3.274-.3 2.702 0 2.427-.003 2.399.299 2.701a.984.984 0 0 0 1.402 0c.302-.302.299-.274.299-2.701s.003-2.399-.299-2.701a.998.998 0 0 0-1.058-.23m0 7.997c-.355.131-.643.549-.643.934 0 .729.814 1.222 1.465.887.711-.365.708-1.41-.004-1.776-.211-.109-.588-.129-.818-.045" fill-rule="evenodd" stroke="none"/></svg>