<svg xmlns="http://www.w3.org/2000/svg" viewBox="0 0 24 24"><path d="M6.643 6.069a1.118 1.118 0 0 0-.343.229c-.321.321-.3-.087-.3 5.739l.001 5.183.094.2c.114.24.263.387.505.497.178.08.235.081 5.363.082 5.824.001 5.418.022 5.738-.298a.984.984 0 0 0 0-1.402c-.315-.315-.072-.299-4.418-.299H9.421l4.225-4.23c3.874-3.879 4.23-4.246 4.289-4.427.128-.39.044-.766-.234-1.044s-.654-.362-1.044-.234c-.181.059-.548.415-4.427 4.289L8 14.579v-3.862c0-4.346.016-4.103-.299-4.418a.998.998 0 0 0-1.058-.23" fill-rule="evenodd"/></svg>