<svg xmlns="http://www.w3.org/2000/svg" viewBox="0 0 24 24"><path d="M6.643 6.069C6.291 6.193 6 6.614 6 7c0 .242.119.521.299.701.315.315.072.299 4.418.299h3.862l-4.225 4.23c-3.874 3.879-4.23 4.246-4.289 4.427-.128.39-.044.766.234 1.044s.654.362 1.044.234c.181-.059.548-.415 4.427-4.289L16 9.421v3.862c0 4.346-.016 4.103.299 4.418a.984.984 0 0 0 1.402 0c.32-.32.299.086.298-5.738-.001-5.128-.002-5.185-.082-5.363a.951.951 0 0 0-.497-.505l-.2-.094-5.2.003c-4.603.002-5.22.009-5.377.065" fill-rule="evenodd"/></svg>