<svg xmlns="http://www.w3.org/2000/svg" viewBox="0 0 24 24" stroke="currentColor" stroke-width="2" stroke-linecap="round" stroke-linejoin="round" class="feather feather-bar-chart"><path d="M17.643 3.069a1.118 1.118 0 0 0-.343.229c-.327.326-.3-.443-.3 8.702 0 9.144-.026 8.376.299 8.701a.984.984 0 0 0 1.402 0c.325-.325.299.443.299-8.701s.026-8.376-.299-8.701a.998.998 0 0 0-1.058-.23m-6 6a1.118 1.118 0 0 0-.343.229c-.321.321-.3-.082-.3 5.702 0 5.783-.021 5.381.299 5.701a.984.984 0 0 0 1.402 0c.32-.32.299.082.299-5.701 0-5.783.021-5.381-.299-5.701a.998.998 0 0 0-1.058-.23m-6 6a1.118 1.118 0 0 0-.343.229c-.303.303-.3.274-.3 2.702 0 2.427-.003 2.399.299 2.701a.984.984 0 0 0 1.402 0C7.003 20.399 7 20.427 7 18s.003-2.399-.299-2.701a.998.998 0 0 0-1.058-.23" fill-rule="evenodd" stroke="none"/></svg>