<svg xmlns="http://www.w3.org/2000/svg" viewBox="0 0 24 24" stroke="currentColor" stroke-width="2" stroke-linecap="round" stroke-linejoin="round" class="feather feather-bell"><path d="M11.1 1.062c-2.376.321-4.375 1.768-5.402 3.911C5.218 5.974 5.001 6.952 5 8.12c-.002 2.412-.449 4.656-1.245 6.251-.353.708-.665 1.148-1.176 1.655-.356.353-.462.485-.514.637a.978.978 0 0 0 .234 1.038c.326.326-.563.299 9.701.299 10.264 0 9.375.027 9.701-.299a.978.978 0 0 0 .234-1.038c-.052-.152-.158-.284-.514-.637-.502-.499-.821-.943-1.158-1.617-.809-1.614-1.171-3.368-1.262-6.116-.046-1.376-.14-1.947-.458-2.77-.647-1.675-1.821-2.974-3.403-3.763-1.304-.651-2.657-.885-4.04-.698m1.88 2.037c1.016.213 1.806.642 2.542 1.378.581.583.971 1.201 1.212 1.924.19.568.228.851.267 1.979.042 1.221.086 1.788.201 2.612.248 1.766.678 3.177 1.376 4.515l.258.493H5.164l.258-.493c.694-1.331 1.123-2.733 1.373-4.493.112-.783.162-1.436.205-2.654.038-1.106.077-1.393.266-1.96.511-1.537 1.863-2.813 3.414-3.222.712-.187 1.634-.219 2.3-.079M10 20.035a1 1 0 0 0-.719.969c-.001.345.172.656.616 1.1.307.309.421.393.743.55.524.256.802.322 1.36.322s.836-.066 1.36-.322c.322-.157.436-.241.743-.55.586-.586.745-1.037.534-1.504-.176-.388-.467-.576-.897-.578-.421-.003-.615.114-.951.576-.377.516-1.201.516-1.578 0-.203-.279-.345-.417-.515-.498-.171-.082-.538-.116-.696-.065" fill-rule="evenodd" stroke="none"/></svg>