<svg xmlns="http://www.w3.org/2000/svg" viewBox="0 0 24 24" stroke="currentColor" stroke-width="2" stroke-linecap="round" stroke-linejoin="round" class="feather feather-bookmark"><path d="M6.62 2.025c-.408.08-.533.114-.75.202-.706.287-1.342.91-1.62 1.588-.247.602-.227-.147-.24 8.983-.013 9.366-.038 8.576.288 8.902a.975.975 0 0 0 1.023.239c.097-.034 1.588-1.071 3.428-2.385l3.256-2.326.107.078c2.233 1.619 6.446 4.591 6.57 4.635a.978.978 0 0 0 1.02-.241c.326-.326.301.464.288-8.902-.013-9.088.005-8.375-.227-8.953-.367-.916-1.287-1.641-2.283-1.802-.246-.04-10.662-.057-10.86-.018m10.72 2.041c.116.04.263.135.362.234.323.323.299-.312.288 7.651l-.01 7.089-2.76-1.971c-1.752-1.251-2.82-1.989-2.925-2.02a.959.959 0 0 0-.59 0c-.105.031-1.159.759-2.886 1.992a775.296 775.296 0 0 1-2.77 1.974c-.04.024-.048-1.449-.039-7.142L6.02 4.7l.111-.189c.125-.213.318-.375.539-.454.122-.044 1.104-.054 5.313-.055 4.703-.002 5.18.004 5.357.064" fill-rule="evenodd" stroke="none"/></svg>