<svg xmlns="http://www.w3.org/2000/svg" viewBox="0 0 24 24"><path d="M7.397 2.084A3.847 3.847 0 0 0 4.412 5.11c-.067.336-.073 1.339-.061 10.08l.012 9.707.1.215c.32.692 1.129 1.045 1.837.804.192-.066 1.191-.756 3.943-2.722 2.028-1.449 3.718-2.634 3.757-2.634.039 0 1.729 1.185 3.757 2.634 2.752 1.966 3.751 2.656 3.943 2.722a1.494 1.494 0 0 0 1.618-.471c.373-.458.345.431.331-10.514l-.013-9.774-.106-.342c-.446-1.438-1.532-2.442-2.96-2.735-.318-.065-1.085-.073-6.603-.07-5.349.004-6.29.014-6.57.074"/></svg>