<svg xmlns="http://www.w3.org/2000/svg" viewBox="0 0 24 24" stroke="currentColor" stroke-width="2" stroke-linecap="round" stroke-linejoin="round" class="feather feather-briefcase"><path d="M9.62 2.025c-.408.08-.533.114-.75.202-.706.287-1.342.91-1.62 1.588-.193.469-.217.616-.239 1.412l-.02.768-1.766.015c-1.451.013-1.801.027-1.965.078-1.145.356-1.901 1.128-2.184 2.232-.083.326-.084 11.032 0 11.357.281 1.099 1.04 1.876 2.184 2.238.179.057 1.066.065 8.56.075 5.689.008 8.447-.001 8.633-.03 1.19-.182 2.167-1.084 2.471-2.28.083-.327.083-11.033 0-11.357-.307-1.197-1.264-2.09-2.444-2.28-.15-.025-.938-.043-1.865-.043h-1.606l-.02-.77c-.014-.507-.041-.838-.08-.97-.354-1.196-1.268-2.03-2.429-2.217-.244-.04-4.668-.056-4.86-.018m4.72 2.041c.253.087.507.341.594.594.049.145.066.339.066.767V6H8.993l.014-.65c.013-.627.017-.657.124-.839.125-.213.318-.375.539-.454.118-.042.611-.054 2.313-.055 1.911-.002 2.185.006 2.357.064M7 14v6H5.427c-1.79 0-1.835-.006-2.129-.3-.321-.321-.3.088-.289-5.782L3.02 8.7l.111-.189c.061-.103.173-.236.25-.294.273-.208.319-.213 2.029-.215L7 8v6m8 0v6H9V8h6v6m5.34-5.934c.115.039.263.135.361.233.32.32.299-.082.299 5.701 0 5.783.021 5.381-.299 5.701-.292.293-.339.299-2.128.299H17V8h1.573c1.359 0 1.599.009 1.767.066" fill-rule="evenodd" stroke="none"/></svg>