<svg xmlns="http://www.w3.org/2000/svg" viewBox="0 0 24 24"><path d="M7.839 1.307a1.185 1.185 0 0 0-.556.498c-.067.13-.095.271-.108.56l-.018.385H6.066c-1.224 0-1.426.03-1.816.267-.278.169-.592.544-.719.856l-.093.231v7.875c0 7.475.003 7.886.074 8.09.165.471.615.921 1.086 1.085.204.071.615.075 8.09.075h7.875l.239-.097a1.785 1.785 0 0 0 1.032-1.126c.081-.26.083-.415.083-8.006s-.002-7.746-.083-8.006a1.779 1.779 0 0 0-1.032-1.125c-.227-.091-.303-.097-1.437-.11l-1.198-.015-.001-.32c0-.436-.056-.608-.277-.843-.378-.404-.939-.442-1.349-.091-.26.223-.344.424-.365.875l-.018.385h-6.99l-.001-.323c0-.439-.056-.611-.277-.846-.28-.3-.685-.406-1.05-.274m-.664 3.828c.021.451.105.652.365.875.41.351.971.313 1.349-.091.221-.235.277-.407.277-.846l.001-.323h6.99l.018.385c.021.451.105.652.365.875.41.351.971.313 1.349-.091.221-.235.277-.407.277-.846l.001-.323h1.75v2.5h-14.5v-2.5h1.74l.018.385m12.742 9.115v5h-14.5v-10h14.5v5m-9.828-3.193a1.196 1.196 0 0 0-.557.498c-.118.226-.126.649-.016.862.042.08.453.525.915.989l.839.844-.839.844c-.462.464-.873.909-.915.989a.935.935 0 0 0-.076.417.908.908 0 0 0 .35.76c.282.241.609.298.984.17.174-.059.333-.197 1.061-.915l.856-.845.831.832c.457.457.897.863.978.901.217.103.5.117.742.037.267-.089.565-.395.635-.654.06-.223.03-.562-.067-.75-.04-.077-.439-.51-.886-.963l-.814-.823.814-.823c.447-.453.846-.886.886-.963.097-.188.127-.527.067-.75-.07-.259-.368-.565-.635-.654a1.034 1.034 0 0 0-.742.037c-.081.038-.521.444-.978.901l-.831.832-.856-.845c-.728-.718-.887-.856-1.061-.915a1.054 1.054 0 0 0-.685-.013" fill-rule="evenodd"/></svg>