<svg xmlns="http://www.w3.org/2000/svg" viewBox="0 0 24 24"><path d="M7.199 1.301c-.1.031-.256.12-.347.198-.24.206-.324.41-.356.868l-.027.388-1.207.012-1.206.013-.301.149a1.828 1.828 0 0 0-.847.861l-.128.27v15.884l.149.301c.184.373.485.669.861.847l.27.128h15.88l.27-.128c.376-.178.677-.474.861-.847l.149-.301V4.06l-.128-.27a1.828 1.828 0 0 0-.847-.861l-.301-.149-1.206-.013-1.207-.012-.026-.38c-.032-.453-.123-.676-.358-.877-.157-.134-.467-.258-.647-.258s-.49.124-.648.259c-.241.206-.324.41-.357.871l-.027.39H8.532l-.027-.383c-.032-.456-.122-.677-.358-.879-.165-.141-.475-.26-.664-.255a1.383 1.383 0 0 0-.284.058m-.705 3.823c.029.416.11.634.309.832a.923.923 0 0 0 .697.282.923.923 0 0 0 .697-.282c.199-.198.28-.416.309-.832l.026-.364h6.936l.026.364c.029.416.11.634.309.832a.923.923 0 0 0 .697.282.923.923 0 0 0 .697-.282c.199-.198.28-.416.309-.832l.026-.364h1.708v2.48H4.76V4.76h1.708l.026.364M19.24 14.24v5H4.76v-10h14.48v5m-5.68-3.633c-.201.076-.403.265-2.388 2.245-1.192 1.189-2.186 2.208-2.209 2.265-.095.241-.443 1.736-.443 1.906 0 .157.02.205.136.321.116.116.164.136.321.136.17 0 1.664-.347 1.906-.443.056-.022 1.066-1.007 2.244-2.189 1.678-1.684 2.162-2.191 2.237-2.348.082-.17.096-.26.096-.6 0-.343-.014-.428-.098-.6-.139-.285-.469-.594-.742-.696a1.693 1.693 0 0 0-1.06.003" fill-rule="evenodd"/></svg>