<svg xmlns="http://www.w3.org/2000/svg" viewBox="0 0 24 24"><path d="M8 1.304c-.205.065-.553.426-.616.638a2.2 2.2 0 0 0-.051.487v.315l-1.198.015c-1.126.013-1.211.019-1.427.107a1.803 1.803 0 0 0-1.009 1.009l-.095.229v15.792l.095.229c.193.47.539.816 1.009 1.01l.23.094h15.791l.229-.094c.47-.194.817-.54 1.01-1.01l.095-.229v-7.854c0-6.616-.01-7.886-.059-8.056-.137-.472-.559-.927-1.035-1.117-.227-.091-.303-.097-1.438-.11l-1.198-.015v-.325c0-.41-.08-.641-.3-.865-.401-.409-.975-.406-1.389.007-.248.248-.311.424-.311.871v.318h-7v-.326c0-.42-.082-.656-.303-.873A1.007 1.007 0 0 0 8 1.304m-.667 3.764c0 .447.063.623.311.871.413.412.972.417 1.386.01.221-.217.303-.453.303-.873V4.75h7v.318c0 .447.063.623.311.871.413.412.972.417 1.386.01.221-.217.303-.453.303-.873V4.75h1.75v2.5h-14.5v-2.5h1.75v.318m12.75 9.182v5h-14.5v-10h14.5v5M12.5 10.679c-.205.065-.553.426-.616.638-.033.111-.051.483-.051 1.052v.881h-.88c-1.048 0-1.143.021-1.434.311-.421.422-.421.956 0 1.378.291.29.386.311 1.434.311h.88v.881c0 1.047.021 1.142.311 1.433.414.413.988.416 1.389.007.273-.279.3-.407.3-1.43v-.891h.891c1.024 0 1.152-.027 1.431-.301.188-.185.303-.449.303-.699 0-.25-.115-.514-.303-.699-.279-.274-.407-.301-1.431-.301h-.891v-.888c0-1.031-.028-1.167-.303-1.436a1.007 1.007 0 0 0-1.03-.247" fill-rule="evenodd"/></svg>