<svg xmlns="http://www.w3.org/2000/svg" viewBox="0 0 24 24"><path d="M7.199 1.301c-.1.031-.256.12-.347.198-.24.206-.324.41-.356.868l-.027.388-1.207.012-1.206.013-.301.149a1.828 1.828 0 0 0-.847.861l-.128.27v15.884l.149.301c.184.373.485.669.861.847l.27.128h15.88l.27-.128c.376-.178.677-.474.861-.847l.149-.301V4.06l-.128-.27a1.828 1.828 0 0 0-.847-.861l-.301-.149-1.206-.013-1.207-.012-.026-.38c-.032-.453-.123-.676-.358-.877-.157-.134-.467-.258-.647-.258s-.49.124-.648.259c-.241.206-.324.41-.357.871l-.027.39H8.532l-.027-.383c-.032-.456-.122-.677-.358-.879-.165-.141-.475-.26-.664-.255a1.383 1.383 0 0 0-.284.058m-.705 3.823c.029.416.11.634.309.832a.923.923 0 0 0 .697.282.923.923 0 0 0 .697-.282c.199-.198.28-.416.309-.832l.026-.364h6.936l.026.364c.029.416.11.634.309.832a.923.923 0 0 0 .697.282.923.923 0 0 0 .697-.282c.199-.198.28-.416.309-.832l.026-.364h1.708v2.48H4.76V4.76h1.708l.026.364M19.24 14.24v5H4.76v-10h14.48v5m-4.18-3.194a1.348 1.348 0 0 0-.238.128c-.065.046-.944.862-1.954 1.814-1.01.953-1.85 1.732-1.866 1.732-.016 0-.437-.385-.934-.856-.736-.695-.941-.868-1.094-.92-.37-.126-.713-.063-.993.183a.916.916 0 0 0-.341.736c.001.445.048.505 1.457 1.837.698.66 1.344 1.245 1.436 1.3.138.083.218.1.467.1.248 0 .329-.017.469-.1.275-.164 4.706-4.367 4.792-4.546.096-.201.122-.53.059-.753a1.075 1.075 0 0 0-.493-.588c-.192-.098-.591-.133-.767-.067" fill-rule="evenodd"/></svg>