<svg xmlns="http://www.w3.org/2000/svg" viewBox="0 0 24 24" ><path d="M7.643 1.069a1.118 1.118 0 0 0-.343.229c-.248.248-.3.443-.3 1.126v.569l-1.27.018c-.987.013-1.315.031-1.47.078-1.138.348-1.901 1.127-2.184 2.231-.083.327-.084 15.031 0 15.357.281 1.099 1.041 1.876 2.184 2.238.179.056.983.064 7.56.075 4.998.008 7.448-.001 7.633-.03 1.19-.183 2.167-1.084 2.471-2.28.083-.328.084-15.032 0-15.357-.307-1.197-1.264-2.09-2.444-2.28C19.337 3.02 18.721 3 18.11 3H17v-.573c0-.686-.052-.881-.299-1.128a.984.984 0 0 0-1.402 0c-.247.247-.299.442-.299 1.128V3H9v-.573c0-.686-.052-.881-.299-1.128a.998.998 0 0 0-1.058-.23M7 5.573c0 .686.052.881.299 1.128a.984.984 0 0 0 1.402 0C8.948 6.454 9 6.259 9 5.573V5h6v.573c0 .686.052.881.299 1.128a.984.984 0 0 0 1.402 0c.247-.247.299-.442.299-1.128V5h1.073c1.235 0 1.35.021 1.628.299.293.292.299.339.299 2.128V9H3.997l.011-1.65.012-1.65.111-.189c.061-.103.173-.236.25-.294.262-.2.357-.213 1.529-.215L7 5v.573m13 10c0 5.141.019 4.81-.299 5.128-.324.324.322.299-7.701.299s-7.377.025-7.701-.299c-.318-.318-.299.013-.299-5.128V11h16v4.573" /></svg>