<svg xmlns="http://www.w3.org/2000/svg" viewBox="0 0 24 24"><path d="M5.743 1.929c-.039.019-3.402 3.903-3.446 3.981-.06.106-.005.247.116.298.09.038 6.799.038 6.887 0 .115-.048.172-.159.135-.263-.027-.076-3.402-3.987-3.466-4.016a.325.325 0 0 0-.226 0m-3.37 5.897a.193.193 0 0 0-.089.215c.012.045.499.622 1.71 2.026.931 1.079 1.719 1.978 1.751 1.998a.216.216 0 0 0 .226.003c.052-.029 3.409-3.902 3.453-3.984.045-.084-.001-.218-.092-.265-.047-.024-.453-.027-3.478-.027-3.318 0-3.427.001-3.481.034" fill-rule="evenodd"/></svg>