<svg xmlns="http://www.w3.org/2000/svg" viewBox="0 0 14 14"><path d="M2.429 2.046a.752.752 0 0 0-.229.153C1.982 2.416 2 1.903 2 8c0 6.096-.018 5.584.199 5.801.217.217-.295.199 5.801.199s5.584.018 5.801-.199c.217-.217.199.295.199-5.801s.018-5.584-.199-5.801c-.217-.217.297-.199-5.812-.197-4.858.002-5.455.007-5.56.044M12.667 8v4.667H3.333V3.333h9.334V8M9.22 6.9 7.333 8.787l-.946-.947-.947-.946-.467.466-.466.467 1.42 1.42 1.42 1.42L9.7 8.313l2.354-2.353-.474-.473-.474-.473L9.22 6.9" fill-rule="evenodd"/></svg>