<svg xmlns="http://www.w3.org/2000/svg" viewBox="0 0 25 25"><path d="M20.44 2.583a3.456 3.456 0 0 0-.513.201c-.264.129-.414.261-1.48 1.307-.653.64-3.225 3.198-5.716 5.685l-4.53 4.523-.27-.26c-.148-.142-.972-.953-1.83-1.801-1.69-1.669-1.784-1.744-2.367-1.895-.314-.081-.962-.082-1.276-.002A2.625 2.625 0 0 0 .805 11.68c-.369.753-.376 1.553-.022 2.272.129.262.279.431 1.454 1.64 1.144 1.177 3.883 3.887 4.406 4.36.384.347.943.539 1.557.534.61-.004 1.109-.173 1.517-.514.293-.246 11.699-11.629 12.727-12.703.581-.607.827-.893.913-1.063.544-1.077.22-2.43-.757-3.171-.267-.203-.705-.41-.992-.47-.291-.062-.902-.052-1.168.018" fill-rule="evenodd"/></svg>