<svg xmlns="http://www.w3.org/2000/svg" viewBox="0 0 30 30"><path d="m14.987 2.699-.64.077c-2.358.282-4.64 1.236-6.614 2.763-.585.453-1.743 1.612-2.198 2.2C4.06 9.644 3.159 11.755 2.79 14.17c-.113.739-.127 2.757-.025 3.483.347 2.472 1.267 4.667 2.77 6.608.455.588 1.613 1.747 2.198 2.2 1.979 1.532 4.094 2.416 6.64 2.777.721.102 2.68.086 3.467-.029a13.412 13.412 0 0 0 8.571-4.892c1.507-1.878 2.476-4.165 2.824-6.664.092-.661.092-2.645 0-3.306-.408-2.925-1.629-5.481-3.62-7.575C23.628 4.682 20.899 3.266 18 2.82c-.663-.102-2.542-.178-3.013-.121m5.466 9.36c.287.08.742.534.821.821.099.36.073.725-.072 1.016-.101.201-.814.944-2.974 3.097-2.566 2.558-2.867 2.842-3.104 2.92-.333.11-.583.11-.914-.001-.231-.076-.448-.271-1.772-1.586-1.64-1.63-1.772-1.8-1.771-2.296 0-.444.092-.67.392-.971.301-.3.528-.392.968-.391.465.002.668.141 1.694 1.161l.947.942 2.279-2.276c1.714-1.711 2.339-2.303 2.52-2.385.268-.12.66-.141.986-.051" fill-rule="evenodd"/></svg>