<svg xmlns="http://www.w3.org/2000/svg" viewBox="0 0 24 24" stroke="currentColor" stroke-width="2" stroke-linecap="round" stroke-linejoin="round" class="feather feather-chevron-down"><path d="M5.643 8.069C5.291 8.193 5 8.614 5 9c0 .08.029.234.065.343.059.18.34.473 3.19 3.328 2.254 2.258 3.174 3.155 3.301 3.216.244.119.509.137.77.053.203-.066.375-.23 3.345-3.195 2.258-2.253 3.155-3.174 3.216-3.301a.986.986 0 0 0-.185-1.144c-.279-.279-.655-.364-1.045-.235-.179.059-.445.312-2.927 2.789L12 13.579l-2.73-2.725c-2.482-2.477-2.748-2.73-2.927-2.789a1.032 1.032 0 0 0-.7.004" fill-rule="evenodd" stroke="none"/></svg>