<svg xmlns="http://www.w3.org/2000/svg" viewBox="0 0 24 24" stroke="currentColor" stroke-width="2" stroke-linecap="round" stroke-linejoin="round" class="feather feather-chevron-left"><path d="M14.64 5.068c-.156.053-.603.483-3.311 3.187-2.258 2.253-3.155 3.174-3.216 3.301a1.013 1.013 0 0 0-.053.77c.066.203.23.375 3.195 3.345 2.253 2.258 3.174 3.155 3.301 3.216a.986.986 0 0 0 1.144-.185c.279-.279.364-.655.235-1.045-.059-.179-.312-.445-2.789-2.927L10.421 12l2.725-2.73c2.477-2.482 2.73-2.748 2.789-2.927a1.004 1.004 0 0 0-1.295-1.275" fill-rule="evenodd" stroke="none"/></svg>