<svg xmlns="http://www.w3.org/2000/svg" viewBox="0 0 24 24" stroke="currentColor" stroke-width="2" stroke-linecap="round" stroke-linejoin="round" class="feather feather-chevron-up"><path d="M11.64 8.068c-.156.053-.603.483-3.311 3.187-2.258 2.253-3.155 3.174-3.216 3.301a.986.986 0 0 0 .185 1.144c.279.279.655.364 1.045.235.179-.059.445-.312 2.927-2.789L12 10.421l2.73 2.725c2.482 2.477 2.748 2.73 2.927 2.789.39.129.766.044 1.045-.235a.986.986 0 0 0 .185-1.144c-.061-.127-.958-1.047-3.216-3.301-2.855-2.85-3.148-3.131-3.328-3.19a1.053 1.053 0 0 0-.703.003" fill-rule="evenodd" stroke="none"/></svg>