<svg xmlns="http://www.w3.org/2000/svg" viewBox="0 0 24 24" stroke="currentColor" stroke-width="2" stroke-linecap="round" stroke-linejoin="round" class="feather feather-chevron-right"><path d="M8.643 5.069C8.291 5.193 8 5.614 8 6c0 .08.029.234.065.343.059.179.312.445 2.789 2.927L13.579 12l-2.725 2.73c-2.477 2.482-2.73 2.748-2.789 2.927-.129.39-.044.766.235 1.045a.986.986 0 0 0 1.144.185c.127-.061 1.048-.958 3.301-3.216 2.965-2.97 3.129-3.142 3.195-3.345a1.013 1.013 0 0 0-.053-.77c-.061-.127-.958-1.047-3.216-3.301-2.855-2.85-3.148-3.131-3.328-3.19a1.038 1.038 0 0 0-.7.004" fill-rule="evenodd" stroke="none"/></svg>