<svg xmlns="http://www.w3.org/2000/svg"  viewBox="0 0 24 24"><path d="m7.507 1.349-.334.04c-1.64.186-3.253 1.078-4.333 2.393l-.16.195-.007-.815-.007-.815H1.333v4h4V5.013h-.866c-.477 0-.867-.008-.867-.017 0-.039.313-.43.504-.631a5.326 5.326 0 0 1 8.682 1.296c.725 1.481.726 3.2.003 4.672a5.28 5.28 0 0 1-2.456 2.456c-2.41 1.184-5.331.371-6.812-1.896a5.662 5.662 0 0 1-.744-1.826 6.054 6.054 0 0 1-.11-.933V8H1.325l.018.338a6.6 6.6 0 0 0 1.95 4.369A6.55 6.55 0 0 0 6.6 14.515c.573.119.771.138 1.413.137.67-.001.97-.034 1.547-.172a6.726 6.726 0 0 0 3.247-1.866 6.732 6.732 0 0 0 1.81-3.787c.045-.328.046-1.328.002-1.64-.284-2.005-1.297-3.641-2.932-4.733A6.542 6.542 0 0 0 8.92 1.397c-.256-.037-1.248-.072-1.413-.048m-.174 5.124V8.28l1.274 1.274 1.273 1.273.473-.474.474-.473-1.08-1.08-1.08-1.08V4.667H7.333v1.806" fill-rule="evenodd"/></svg>