<svg xmlns="http://www.w3.org/2000/svg" viewBox="0 0 24 24"><path d="m7.507 1.349-.334.04c-1.16.132-2.318.615-3.306 1.381a8.595 8.595 0 0 0-1.1 1.1 6.79 6.79 0 0 0-1.372 3.215c-.062.401-.062 1.429 0 1.83.298 1.939 1.314 3.557 2.898 4.618.881.59 1.784.929 2.894 1.086.36.051 1.34.043 1.733-.015a6.723 6.723 0 0 0 2.76-1.053c1.645-1.101 2.656-2.731 2.939-4.738.045-.316.044-1.314-.002-1.64a6.834 6.834 0 0 0-1.531-3.48 6.712 6.712 0 0 0-4.153-2.294c-.288-.041-1.246-.075-1.426-.05m1.004 1.345a5.338 5.338 0 0 1 4.461 3.386c.244.618.345 1.181.345 1.92 0 .595-.031.847-.168 1.373-.474 1.819-1.954 3.301-3.767 3.773-.536.14-.784.171-1.382.171-.595 0-.847-.031-1.373-.168a5.344 5.344 0 0 1-3.776-3.776c-.137-.526-.168-.778-.168-1.373s.031-.847.168-1.373a5.343 5.343 0 0 1 5.66-3.933M5.647 5.647l-.474.473.94.94.94.94-.94.94-.94.94.474.473.473.474.94-.94.94-.94.94.94.94.94.473-.474.474-.473-.94-.94-.94-.94.94-.94.94-.94-.474-.473-.473-.474-.94.94-.94.94-.94-.94-.94-.94-.473.474" fill-rule="evenodd"/></svg>