<svg xmlns="http://www.w3.org/2000/svg" viewBox="0 0 24 24" stroke="currentColor" stroke-width="2" stroke-linecap="round" stroke-linejoin="round" class="feather feather-coffee"><path d="M5.643.069a1.066 1.066 0 0 0-.577.591C5.009.828 5 1.073 5 2.5c0 1.871.005 1.907.299 2.201a.984.984 0 0 0 1.402 0C6.995 4.407 7 4.371 7 2.5S6.995.593 6.701.299a.998.998 0 0 0-1.058-.23m4 0a1.066 1.066 0 0 0-.577.591C9.009.828 9 1.073 9 2.5c0 1.871.005 1.907.299 2.201.18.18.459.299.701.299.242 0 .521-.119.701-.299.294-.294.299-.33.299-2.201S10.995.593 10.701.299a.998.998 0 0 0-1.058-.23m4 0a1.066 1.066 0 0 0-.577.591C13.009.828 13 1.073 13 2.5c0 1.871.005 1.907.299 2.201.18.18.459.299.701.299.242 0 .521-.119.701-.299.294-.294.299-.33.299-2.201S14.995.593 14.701.299a.998.998 0 0 0-1.058-.23m-12 6.999c-.24.086-.496.35-.579.6-.061.183-.065.616-.053 5.116.012 4.547.018 4.938.084 5.216.249 1.05.661 1.801 1.383 2.521.743.741 1.526 1.164 2.562 1.386.318.068.643.073 4.96.073s4.642-.005 4.96-.073c1.247-.267 2.309-.938 3.046-1.923.287-.385.678-1.165.794-1.584.095-.345.199-.984.2-1.224v-.164l.344-.027a4.96 4.96 0 0 0 3.085-1.361c.448-.423.77-.865 1.054-1.444.794-1.62.664-3.448-.355-5-.238-.362-.948-1.071-1.313-1.312A5.508 5.508 0 0 0 20 7.094c-.283-.067-.797-.072-9.24-.08-8.032-.008-8.958-.002-9.117.054M17 13.142c0 4.531.004 4.446-.235 5.019a3.124 3.124 0 0 1-1.604 1.604c-.574.24-.474.235-5.161.235-4.701 0-4.589.005-5.169-.241a3.1 3.1 0 0 1-1.596-1.598C2.996 17.588 3 17.673 3 13.142V9h14v4.142m2.592-4.079c1.851.38 2.9 2.358 2.173 4.098a3.124 3.124 0 0 1-1.604 1.604c-.282.117-.791.235-1.019.235H19V9h.142c.078 0 .28.028.45.063" fill-rule="evenodd" stroke="none"/></svg>