<svg xmlns="http://www.w3.org/2000/svg" viewBox="0 0 24 24"><path d="M11.643 3.069a1.066 1.066 0 0 0-.577.591c-.057.168-.066.408-.066 1.767V7H6.927c-4.581 0-4.312-.017-4.628.299C1.977 7.621 2 7.097 2 14s-.023 6.379.299 6.701c.326.326-.563.299 9.701.299 10.264 0 9.375.027 9.701-.299.325-.325.299.443.299-8.701s.026-8.376-.299-8.701c-.319-.319.025-.299-5.218-.296-4.116.003-4.684.011-4.84.066M20 12v7h-7V5h7v7m-9 2v5H4V9h7v5m3-3v1h5v-2h-5v1m-9 3v1h5v-2H5v1m9 0v1h5v-2h-5v1m-9 3v1h5v-2H5v1m9 0v1h5v-2h-5v1" fill-rule="evenodd"/></svg>