<svg xmlns="http://www.w3.org/2000/svg" viewBox="0 0 24 24" stroke="currentColor" stroke-width="2" stroke-linecap="round" stroke-linejoin="round" class="feather feather-dollar-sign"><path d="M11.643.069a1.066 1.066 0 0 0-.577.591C11.009.828 11 1.068 11 2.423v1.569l-1.09.018c-1.009.017-1.119.026-1.473.12-1.685.448-2.856 1.619-3.308 3.307-.091.34-.102.46-.102 1.063s.011.723.102 1.063c.452 1.687 1.624 2.859 3.308 3.307.354.094.464.103 1.473.12l1.09.018V18H8.427c-2.904 0-2.821-.008-3.128.299a.984.984 0 0 0 0 1.402c.307.307.224.299 3.128.299H11v1.573c0 1.789.006 1.836.299 2.128a.984.984 0 0 0 1.402 0c.293-.292.299-.339.299-2.128V20h.897c.985 0 1.34-.035 1.858-.186 2.127-.616 3.506-2.733 3.202-4.917a4.518 4.518 0 0 0-3.202-3.711c-.518-.151-.873-.186-1.858-.186H13V6h2.073c2.346 0 2.327.002 2.628-.299a.984.984 0 0 0 0-1.402C17.4 3.998 17.419 4 15.073 4H13V2.427c0-1.789-.006-1.836-.299-2.128a.998.998 0 0 0-1.058-.23M11 8.5V11l-.87-.001c-1.022-.001-1.275-.041-1.768-.284-.812-.4-1.361-1.294-1.361-2.215 0-.921.549-1.814 1.361-2.215.491-.242.712-.278 1.748-.282L11 6v2.5m4.02 4.56c1.335.279 2.202 1.615 1.92 2.96a2.528 2.528 0 0 1-1.307 1.698c-.487.24-.743.28-1.763.281L13 18v-5l.87.001c.607 0 .954.018 1.15.059" fill-rule="evenodd" stroke="none"/></svg>