<svg xmlns="http://www.w3.org/2000/svg" viewBox="0 0 24 24"><path d="M11.643 2.069a1.118 1.118 0 0 0-.343.229c-.32.32-.3-.048-.3 5.418v4.862l-1.73-1.724c-1.551-1.545-1.75-1.73-1.927-1.789-.389-.129-.766-.044-1.044.234s-.363.654-.234 1.044c.059.179.307.44 2.69 2.831 2.854 2.864 2.809 2.825 3.245 2.825.436 0 .391.039 3.245-2.825 2.383-2.391 2.631-2.652 2.69-2.831.129-.39.044-.766-.234-1.044s-.655-.363-1.044-.234c-.177.059-.376.244-1.927 1.789L13 12.578V7.716c0-5.465.02-5.098-.299-5.417a.998.998 0 0 0-1.058-.23m-9 12c-.241.085-.496.349-.58.601-.061.183-.066.431-.053 2.537.016 2.505.01 2.429.231 2.953a3.1 3.1 0 0 0 2.079 1.764c.33.084 15.032.084 15.36 0 1.098-.282 1.883-1.05 2.233-2.184.052-.168.065-.572.077-2.533.016-2.649.021-2.598-.288-2.907a.984.984 0 0 0-1.403-.001c-.302.302-.299.274-.299 2.701s.003 2.399-.299 2.701c-.324.324.322.299-7.701.299s-7.377.025-7.701-.299C3.997 19.399 4 19.427 4 17s.003-2.399-.299-2.701a.998.998 0 0 0-1.058-.23" fill-rule="evenodd"/></svg>