<svg xmlns="http://www.w3.org/2000/svg" viewBox="0 0 24 24" stroke="currentColor" stroke-width="2" stroke-linecap="round" stroke-linejoin="round" class="feather feather-edit"><path d="M19.56.905c-.501.097-.97.285-1.36.546-.291.194-9.989 9.902-10.079 10.089C8.025 11.739 7 15.829 7 16.012c0 .509.479.988.988.988.183 0 4.273-1.025 4.472-1.121.187-.09 9.895-9.788 10.089-10.079.195-.292.364-.655.46-.988.128-.446.127-1.181-.002-1.63A3.186 3.186 0 0 0 20.78.978c-.237-.063-1.026-.111-1.22-.073m.799 2.038c.296.088.61.402.698.698.08.269.08.447 0 .722-.062.212-.174.328-4.821 4.978l-4.757 4.761-1.021.254c-.562.14-1.032.243-1.045.231-.012-.013.091-.483.231-1.045l.254-1.021 4.761-4.754c4.432-4.427 4.775-4.759 4.961-4.818a1.16 1.16 0 0 1 .739-.006M3.62 3.025c-.408.08-.533.114-.75.202-.881.358-1.549 1.137-1.794 2.093-.083.327-.084 15.031 0 15.357.281 1.096 1.043 1.877 2.184 2.238.179.056.983.064 7.56.075 4.998.008 7.448-.001 7.633-.03a3.034 3.034 0 0 0 2.306-1.8c.229-.543.217-.302.231-4.456.014-4.327.03-4.086-.288-4.404a.984.984 0 0 0-1.403-.001c-.314.314-.299.097-.299 4.201 0 4.104.015 3.887-.299 4.201-.324.324.322.299-7.701.299s-7.377.025-7.701-.299c-.324-.324-.299.325-.297-7.718.001-5.879.011-7.19.055-7.313.079-.221.241-.414.454-.539L3.7 5.02 7.48 5l3.78-.02.19-.094c.601-.296.73-1.108.251-1.587-.315-.315-.087-.3-4.278-.294-2.048.002-3.759.011-3.803.02" fill-rule="evenodd" stroke="none"/></svg>