<svg xmlns="http://www.w3.org/2000/svg" viewBox="0 0 24 24"><path d="M11.26 2.023a37.61 37.61 0 0 1-.5.06c-1.74.198-3.477.924-4.96 2.071-.439.34-1.308 1.21-1.649 1.651-1.109 1.432-1.778 2.999-2.059 4.823-.092.6-.092 2.144 0 2.744.448 2.909 1.971 5.336 4.348 6.928 1.321.884 2.676 1.393 4.34 1.629.54.076 2.01.064 2.6-.023a10.107 10.107 0 0 0 4.14-1.579c2.467-1.652 3.984-4.097 4.408-7.107.067-.474.066-1.972-.002-2.46-.261-1.875-.986-3.586-2.119-5A10.032 10.032 0 0 0 13.4 2.099c-.432-.063-1.869-.113-2.14-.076M13 10v3h-2V7h2v3m0 6v1h-2v-2h2v1" fill-rule="evenodd"/></svg>