<svg xmlns="http://www.w3.org/2000/svg" viewBox="0 0 24 24"><path d="M11.26 2.023a37.61 37.61 0 0 1-.5.06c-1.74.198-3.477.924-4.96 2.071-.439.34-1.308 1.21-1.649 1.651-1.109 1.432-1.778 2.999-2.059 4.823-.092.6-.092 2.144 0 2.744.448 2.909 1.971 5.336 4.348 6.928 1.321.884 2.676 1.393 4.34 1.629.54.076 2.01.064 2.6-.023a10.107 10.107 0 0 0 4.14-1.579c2.467-1.652 3.984-4.097 4.408-7.107.067-.474.066-1.972-.002-2.46-.273-1.959-1.063-3.755-2.298-5.22A10.054 10.054 0 0 0 13.4 2.099c-.432-.063-1.869-.113-2.14-.076m1.506 2.019c3.333.335 6.124 2.701 6.957 5.898.206.79.252 1.167.252 2.06s-.046 1.27-.252 2.06c-.711 2.728-2.93 4.951-5.65 5.659-.804.21-1.176.256-2.073.256-.893 0-1.27-.046-2.06-.252-2.733-.712-4.951-2.93-5.663-5.663-.206-.79-.252-1.167-.252-2.06s.046-1.27.252-2.06c.712-2.732 2.924-4.945 5.659-5.663a8.044 8.044 0 0 1 2.83-.235M11 10v3h2V7h-2v3m0 6v1h2v-2h-2v1" fill-rule="evenodd"/></svg>