<svg xmlns="http://www.w3.org/2000/svg" viewBox="0 0 24 24" stroke="currentColor" stroke-width="2" stroke-linecap="round" stroke-linejoin="round" class="feather feather-external-link"><path d="M14.643 2.069C14.291 2.193 14 2.614 14 3c0 .242.119.521.299.701.298.298.306.299 2.418.299h1.862l-4.725 4.73c-4.339 4.344-4.73 4.746-4.789 4.927-.128.39-.044.766.234 1.044s.654.362 1.044.234c.181-.059.583-.45 4.927-4.789L20 5.421v1.862c0 2.112.001 2.12.299 2.418a.984.984 0 0 0 1.402 0c.312-.312.299-.152.299-3.738l-.001-3.183-.094-.2a.951.951 0 0 0-.505-.497c-.176-.08-.244-.081-3.38-.079-2.792.002-3.222.01-3.377.065M4.62 5.025c-.408.08-.533.114-.75.202-.881.358-1.549 1.137-1.794 2.093-.083.326-.084 12.032 0 12.357.281 1.099 1.042 1.878 2.184 2.238.178.056.859.064 6.06.075 3.96.008 5.949-.001 6.133-.03a3.034 3.034 0 0 0 2.306-1.8c.227-.539.216-.351.231-3.955.015-3.767.028-3.589-.288-3.905a.984.984 0 0 0-1.403-.001C16.987 12.61 17 12.456 17 16s.013 3.39-.299 3.701c-.321.321.142.299-6.201.299s-5.88.022-6.201-.299c-.321-.321-.299.144-.297-6.218.001-4.626.011-5.69.055-5.813.079-.221.241-.414.454-.539L4.7 7.02 7.98 7l3.28-.02.19-.094c.601-.296.73-1.108.251-1.587-.312-.313-.146-.3-3.778-.294-1.773.002-3.259.011-3.303.02" fill-rule="evenodd" stroke="none"/></svg>