<svg xmlns="http://www.w3.org/2000/svg" viewBox="0 0 24 24" stroke="currentColor" stroke-width="2" stroke-linecap="round" stroke-linejoin="round" class="feather feather-file"><path d="M5.62 1.025c-.408.08-.533.114-.75.202-.881.358-1.549 1.137-1.794 2.093-.083.327-.084 17.03 0 17.357.281 1.096 1.044 1.878 2.184 2.238.178.056.9.064 6.56.075 4.306.008 6.448-.001 6.633-.03a3.034 3.034 0 0 0 2.306-1.8c.234-.554.218-.104.231-6.48.011-5.364.007-5.875-.053-6.04-.057-.153-.627-.741-3.791-3.91L13.421 1l-3.861.005c-2.123.002-3.896.011-3.94.02M12 6.073c0 3.463-.012 3.317.299 3.628.311.311.165.299 3.628.299H19v5.073c0 5.701.021 5.308-.299 5.628-.322.322.202.299-6.701.299-6.905 0-6.379.024-6.702-.3-.325-.325-.3.449-.288-8.781L5.02 3.7l.111-.189c.125-.213.318-.375.539-.454.12-.043.763-.054 3.24-.055L12 3v3.073m3.8.147L17.58 8H14V6.22c0-.979.005-1.78.01-1.78.006 0 .811.801 1.79 1.78" fill-rule="evenodd" stroke="none"/></svg>