<svg xmlns="http://www.w3.org/2000/svg" viewBox="0 0 24 24" stroke="currentColor" stroke-width="2" stroke-linecap="round" stroke-linejoin="round" class="feather feather-file-plus"><path d="M5.62 1.025c-.408.08-.533.114-.75.202-.881.358-1.549 1.137-1.794 2.093-.083.327-.084 17.03 0 17.357.281 1.096 1.044 1.878 2.184 2.238.178.056.9.064 6.56.075 4.306.008 6.448-.001 6.633-.03a3.034 3.034 0 0 0 2.306-1.8c.234-.555.218-.055.231-6.98.011-5.827.007-6.375-.054-6.54-.055-.152-.559-.674-3.29-3.41L14.421 1l-4.361.005c-2.398.002-4.396.011-4.44.02M13 5.573c0 2.904-.008 2.821.299 3.128.307.307.224.299 3.128.299H19v5.573c0 6.261.022 5.807-.299 6.128-.322.322.202.299-6.701.299-6.905 0-6.379.024-6.702-.3-.325-.325-.3.449-.288-8.781L5.02 3.7l.111-.189c.125-.213.318-.375.539-.454.121-.043.846-.054 3.74-.055L13 3v2.573m3.3.147L17.58 7H15V5.72c0-.704.005-1.28.01-1.28.006 0 .586.576 1.29 1.28m-4.657 5.349a1.066 1.066 0 0 0-.577.591c-.055.162-.066.373-.066 1.267V14H9.927c-1.235 0-1.35.021-1.628.299a.984.984 0 0 0 0 1.402c.278.278.393.299 1.628.299H11v1.073c0 .894.011 1.105.066 1.267.126.369.538.66.934.66s.808-.291.934-.66c.055-.162.066-.373.066-1.267V16h1.073c1.235 0 1.35-.021 1.628-.299a.984.984 0 0 0 0-1.402c-.278-.278-.393-.299-1.628-.299H13v-1.073c0-1.235-.021-1.35-.299-1.628a.998.998 0 0 0-1.058-.23" fill-rule="evenodd" stroke="none"/></svg>