<svg xmlns="http://www.w3.org/2000/svg" viewBox="0 0 24 24" stroke="currentColor" stroke-width="2" stroke-linecap="round" stroke-linejoin="round" class="feather feather-file-text"><path d="M5.62 1.025c-.408.08-.533.114-.75.202-.881.358-1.549 1.137-1.794 2.093-.083.327-.084 17.03 0 17.357.281 1.096 1.044 1.878 2.184 2.238.178.056.9.064 6.56.075 4.306.008 6.448-.001 6.633-.03a3.034 3.034 0 0 0 2.306-1.8c.234-.555.218-.055.231-6.98.011-5.827.007-6.375-.054-6.54-.055-.152-.559-.674-3.29-3.41L14.421 1l-4.361.005c-2.398.002-4.396.011-4.44.02M13 5.573c0 2.904-.008 2.821.299 3.128.307.307.224.299 3.128.299H19v5.573c0 6.261.022 5.807-.299 6.128-.322.322.202.299-6.701.299-6.905 0-6.379.024-6.702-.3-.325-.325-.3.449-.288-8.781L5.02 3.7l.111-.189c.125-.213.318-.375.539-.454.121-.043.846-.054 3.74-.055L13 3v2.573m3.3.147L17.58 7H15V5.72c0-.704.005-1.28.01-1.28.006 0 .586.576 1.29 1.28M7.643 8.069C7.291 8.193 7 8.614 7 9c0 .396.291.808.66.934.288.098 2.392.098 2.68 0 .369-.126.66-.538.66-.934s-.291-.808-.66-.934c-.278-.094-2.427-.092-2.697.003m0 4C7.291 12.193 7 12.614 7 13c0 .242.119.521.299.701.317.317.038.299 4.701.299 4.663 0 4.384.018 4.701-.299a.984.984 0 0 0 0-1.402c-.317-.317-.035-.299-4.718-.296-3.663.003-4.184.011-4.34.066m0 4C7.291 16.193 7 16.614 7 17c0 .242.119.521.299.701.317.317.038.299 4.701.299 4.663 0 4.384.018 4.701-.299a.984.984 0 0 0 0-1.402c-.317-.317-.035-.299-4.718-.296-3.663.003-4.184.011-4.34.066" fill-rule="evenodd" stroke="none"/></svg>