<svg xmlns="http://www.w3.org/2000/svg" viewBox="0 0 24 24"><path d="M5.534 2.057a2.063 2.063 0 0 0-1.49 1.535c-.062.3-.062 16.516 0 16.816.114.546.562 1.135 1.036 1.364.5.24.123.228 6.92.228s6.42.012 6.92-.228c.286-.138.714-.566.852-.852.24-.5.228-.133.228-6.819V7.98l-2.99-2.99L14.02 2l-4.14.003c-3.165.003-4.189.016-4.346.054M15.52 6.5l2.5 2.5H13V6.5c0-1.375.005-2.5.01-2.5.006 0 1.135 1.125 2.51 2.5m-6.709 7.559c.763.161 1.153.71 1.026 1.441-.124.711-.702 1.1-1.635 1.1H7.88V18H7v-3.915l.17-.022.29-.037c.323-.038 1.104-.019 1.351.033m3.469-.017c.811.128 1.342.516 1.568 1.147.128.356.144.947.037 1.369-.15.594-.431.954-.938 1.2-.451.22-.804.282-1.6.282-.361 0-.713-.011-.782-.025l-.125-.025v-3.904l.23-.025c.127-.014.266-.031.31-.038.2-.031 1.066-.018 1.3.019M17 14.4v.36h-1.52v.92h1.4v.72h-1.4V18h-.92v-3.96H17v.36m-9.071.314c-.039.024-.049.174-.04.609l.011.577.302-.002c.349-.002.521-.078.671-.3.078-.115.091-.176.078-.368-.027-.382-.257-.55-.751-.549-.121 0-.243.015-.271.033m3.541-.008-.11.019v2.635h.252c.932 0 1.433-.54 1.38-1.487-.042-.749-.412-1.125-1.151-1.17a2.271 2.271 0 0 0-.371.003" fill-rule="evenodd"/></svg>