<svg xmlns="http://www.w3.org/2000/svg" viewBox="0 0 24 24"><path d="M3.657 2.043c-1.395.166-2.453 1.242-2.616 2.661-.055.488-.055 14.104 0 14.592.166 1.441 1.222 2.497 2.663 2.663.483.055 16.103.056 16.586 0 .729-.083 1.32-.362 1.813-.856.494-.493.773-1.084.856-1.813.055-.479.054-11.107 0-11.586-.166-1.446-1.22-2.497-2.669-2.663-.212-.025-2.01-.04-4.56-.041h-4.209l-.876-1.31c-.481-.72-.927-1.359-.99-1.418-.278-.261-.165-.251-3.075-.257-1.452-.004-2.767.009-2.923.028M9.355 5.31c.481.72.927 1.359.99 1.418.063.059.187.14.275.18.15.068.445.073 4.94.092l4.78.02.147.092c.183.113.386.341.458.514.046.109.055 1.087.055 5.843 0 3.98-.014 5.758-.044 5.867-.027.1-.12.233-.253.367-.134.133-.267.226-.367.253-.21.059-16.451.062-16.661.003-.193-.053-.489-.319-.592-.532L3 19.255v-7.249c0-6.13.009-7.269.056-7.383.08-.192.32-.443.516-.54C3.737 4.002 3.789 4 6.11 4h2.369l.876 1.31" fill-rule="evenodd"/></svg>