<svg xmlns="http://www.w3.org/2000/svg" viewBox="0 0 24 24"><path d="M9.42 1.026a6.246 6.246 0 0 0-2.176.655c-1.647.851-2.787 2.392-3.151 4.259-.097.499-.097 1.621 0 2.12.115.591.296 1.116.569 1.653.849 1.674 2.393 2.826 4.278 3.194.499.097 1.621.097 2.12 0 1.208-.236 2.312-.809 3.139-1.63a6.147 6.147 0 0 0 1.708-3.217c.099-.514.099-1.582-.002-2.12-.539-2.886-3.05-4.969-5.945-4.933a8.543 8.543 0 0 0-.54.019m1.52 2.09c1.5.375 2.612 1.509 2.965 3.024.054.229.075.474.075.86 0 .601-.067.973-.267 1.477-.857 2.163-3.415 3.142-5.486 2.1a3.66 3.66 0 0 1-1.048-.757 3.924 3.924 0 0 1-1.05-1.818C6.04 7.67 6.026 7.539 6.026 7c0-.539.014-.67.103-1.002a3.924 3.924 0 0 1 1.05-1.818c.614-.611 1.277-.956 2.159-1.124.387-.074 1.187-.045 1.602.06m6.647.354c-.01.016-.13.426-.268.91-.137.484-.257.9-.266.924-.009.024.104.114.251.2.516.3 1.048.877 1.326 1.436.994 2.003-.117 4.413-2.282 4.947l-.348.086v1.987h.122c.358 0 1.337-.288 1.844-.543 1.013-.508 1.943-1.441 2.46-2.468.171-.341.385-.977.481-1.429.053-.25.071-.519.071-1.02s-.018-.77-.071-1.02c-.096-.452-.31-1.088-.481-1.429-.517-1.027-1.445-1.959-2.455-2.466-.298-.15-.354-.166-.384-.115M9.16 14.045a8.207 8.207 0 0 0-4.08 1.648c-.385.301-1.01.92-1.318 1.307-.787.986-1.363 2.212-1.596 3.4-.092.466-.166 1.09-.166 1.398V22h1.988l.027-.384a6.04 6.04 0 0 1 2.414-4.432c.443-.332 1.246-.743 1.758-.9.683-.21 1.042-.261 1.813-.261 1.063 0 1.794.172 2.713.639a5.992 5.992 0 0 1 3.272 4.948l.027.39H18v-.176c0-.096-.018-.362-.041-.59-.243-2.448-1.566-4.614-3.648-5.97-1.462-.953-3.361-1.402-5.151-1.219m8.986.965c-.431.946-.677 1.512-.663 1.524.01.007.178.098.375.202a5.49 5.49 0 0 1 1.379 1.027 6.025 6.025 0 0 1 1.748 3.847l.027.39H23v-.21c-.001-.308-.068-.869-.165-1.37-.232-1.205-.828-2.475-1.624-3.46a10.805 10.805 0 0 0-1.311-1.286 8.915 8.915 0 0 0-1.249-.789 4.139 4.139 0 0 0-.351-.165c-.012 0-.081.131-.154.29" fill-rule="evenodd"/></svg>