<svg xmlns="http://www.w3.org/2000/svg" viewBox="0 0 24 24"><path d="M6.751 3.041a3.314 3.314 0 0 0-1.267.536c-.29.213-.655.618-.832.923-.09.154-.949 1.852-1.909 3.774L.997 11.768l.012 3.386.012 3.386.094.28c.183.546.363.853.723 1.234.388.41.779.648 1.362.832l.3.094h17l.3-.094c.553-.172.903-.383 1.301-.783.39-.392.603-.74.785-1.283l.093-.28.012-3.386.012-3.386-1.746-3.494c-.96-1.922-1.819-3.62-1.908-3.774a3.502 3.502 0 0 0-1.009-1.041 4.01 4.01 0 0 0-.66-.307l-.38-.132-5.18-.006c-2.849-.003-5.265.009-5.369.027m10.298 2.001c.082.023.226.099.32.17.159.119.27.324 1.579 2.928.774 1.54 1.409 2.814 1.41 2.83.001.017-3.76.03-8.358.03-4.598 0-8.359-.013-8.358-.03.001-.016.636-1.289 1.41-2.829C6.564 5.136 6.53 5.192 6.905 5.059c.129-.046.996-.056 5.075-.057 3.271-.001 4.97.012 5.069.04m3.942 10.608-.011 2.65-.111.189a1.038 1.038 0 0 1-.539.454c-.223.079-16.437.079-16.66 0a1.038 1.038 0 0 1-.539-.454L3.02 18.3l-.011-2.65L2.998 13h18.004l-.011 2.65m-15.348-.584C5.288 15.197 5 15.615 5 16c0 .407.292.811.679.94a.99.99 0 0 0 1.226-.518c.232-.499.028-1.067-.478-1.329-.178-.092-.57-.105-.784-.027m4 0C9.288 15.197 9 15.615 9 16c0 .407.292.811.679.94a.99.99 0 0 0 1.226-.518c.232-.499.028-1.067-.478-1.329-.178-.092-.57-.105-.784-.027" fill-rule="evenodd"/></svg>