<svg xmlns="http://www.w3.org/2000/svg" viewBox="0 0 24 24"><path d="M11.18 1.025c-1.795.148-3.562.732-5.032 1.662a11.748 11.748 0 0 0-3.461 3.461C1.869 7.442 1.33 8.925 1.093 10.54c-.052.356-.07.733-.07 1.46s.018 1.104.07 1.46c.366 2.489 1.384 4.537 3.126 6.282.686.689 1.053.991 1.781 1.469 1.357.891 2.852 1.449 4.54 1.695.671.098 2.249.098 2.92 0 1.945-.283 3.631-.98 5.177-2.136.533-.4 1.615-1.46 2.009-1.97a11.152 11.152 0 0 0 2.26-5.34c.052-.355.07-.736.07-1.46s-.018-1.105-.07-1.46c-.292-2-1.028-3.742-2.259-5.34-.388-.503-1.474-1.567-2.01-1.969A10.996 10.996 0 0 0 13.6 1.117c-.526-.079-1.925-.133-2.42-.092m1.683 2.018a9.005 9.005 0 0 1 7.22 5.017c2.183 4.452.329 9.831-4.143 12.023-4.45 2.182-9.836.326-12.023-4.143a8.973 8.973 0 0 1 1.07-9.571 9.028 9.028 0 0 1 7.876-3.326M11.4 6.024c-1.363.259-2.284.874-2.929 1.956-.389.652-.464 1.102-.251 1.494a.999.999 0 0 0 1.325.413c.229-.118.349-.266.538-.667.44-.932 1.392-1.404 2.336-1.159.348.091.609.247.905.538.508.503.719 1.229.515 1.773-.202.543-1.062 1.212-2.063 1.609-.29.114-.439.199-.559.32a1.057 1.057 0 0 0-.297.699c0 .573.526 1.048 1.097.989.263-.027 1.086-.382 1.602-.69 1.756-1.047 2.515-2.383 2.242-3.944a3.913 3.913 0 0 0-1.121-2.178 3.932 3.932 0 0 0-1.853-1.062c-.3-.078-1.247-.136-1.487-.091m.243 10.042c-.355.131-.643.549-.643.934 0 .729.814 1.222 1.465.887.711-.365.708-1.41-.004-1.776-.211-.109-.588-.129-.818-.045" fill-rule="evenodd"/></svg>