<svg xmlns="http://www.w3.org/2000/svg" viewBox="0 0 24 24"><path d="M11.591 1.451c-.131.062-1.766 1.524-5.379 4.809l-5.19 4.72 1.489.01L4 11.001v4.572c0 5.141-.019 4.81.299 5.128.324.324-.322.299 7.701.299s7.377.025 7.701-.299c.318-.318.299.013.299-5.128v-4.572l1.489-.011 1.489-.01-5.19-4.72c-3.613-3.285-5.248-4.747-5.379-4.809a.956.956 0 0 0-.409-.09.956.956 0 0 0-.409.09m3.427 4.989 2.976 2.7.003 4.93L18 19H6l.003-4.93.004-4.93 2.986-2.709c1.643-1.49 3.001-2.705 3.018-2.7.017.005 1.371 1.225 3.007 2.709m-4.027 2.644-.011.565-.24.087a3.421 3.421 0 0 0-.932.535l-.218.178-.165-.092c-.091-.05-.309-.177-.485-.281-.176-.104-.332-.177-.347-.163-.015.015-.244.404-.51.865l-.482.838.33.189c.581.334.674.395.652.43-.011.019-.04.199-.062.4-.036.313-.013.836.05 1.133.005.025-.189.16-.431.3l-.49.285c-.035.021.091.272.44.878.27.467.506.849.526.849.02 0 .239-.117.488-.26a6.78 6.78 0 0 1 .476-.26c.012 0 .114.072.226.161.268.212.596.402.915.53l.259.104.011.563.011.562H13v-1.124l.121-.042c.286-.1.759-.357 1.008-.548a3.06 3.06 0 0 1 .286-.206c.01 0 .233.124.496.275l.479.275.487-.841c.268-.463.479-.861.47-.885-.009-.024-.225-.161-.48-.304l-.463-.26.028-.16c.037-.209.036-1.114-.001-1.32l-.029-.16.479-.273c.264-.15.479-.289.479-.309 0-.02-.218-.414-.485-.876l-.484-.84-.186.107-.478.279a3.968 3.968 0 0 1-.311.172c-.01 0-.11-.072-.222-.161a3.852 3.852 0 0 0-.934-.54l-.24-.091-.011-.564-.011-.564h-1.996l-.011.564m1.535 2.501c.514.162.883.593.995 1.166.124.63-.224 1.298-.832 1.597-.207.101-.27.112-.649.112-.402 0-.431-.006-.67-.136a1.58 1.58 0 0 1-.684-.717c-.091-.196-.106-.279-.106-.607 0-.329.015-.411.107-.609.336-.715 1.083-1.043 1.839-.806" fill-rule="evenodd"/></svg>