<svg xmlns="http://www.w3.org/2000/svg" viewBox="0 0 24 24" stroke="currentColor" stroke-width="2" stroke-linecap="round" stroke-linejoin="round" class="feather feather-home"><path d="M11.66 1.064c-.097.035-1.994 1.485-4.798 3.667-4.276 3.327-4.646 3.625-4.74 3.808l-.102.199v5.861c0 4.878.009 5.897.056 6.078.281 1.099 1.041 1.876 2.184 2.238.179.056.983.064 7.56.075 4.998.008 7.448-.001 7.633-.03a3.029 3.029 0 0 0 2.314-1.82c.224-.53.213-.207.213-6.541V8.738l-.101-.199c-.094-.184-.453-.472-4.739-3.808-3.28-2.553-4.69-3.627-4.816-3.67a1.001 1.001 0 0 0-.664.003m4.35 5.32L20 9.487v5.329c0 5.989.022 5.565-.299 5.885-.292.293-.339.299-2.128.299H16v-4.573c0-5.141.019-4.81-.299-5.128C15.39 10.987 15.544 11 12 11s-3.39-.013-3.701.299c-.318.318-.299-.013-.299 5.128V21H6.427c-1.789 0-1.836-.006-2.128-.299-.321-.32-.299.103-.299-5.883V9.491l3.99-3.105A541.176 541.176 0 0 1 12 3.281c.011-.001 1.816 1.396 4.01 3.103M14 17v4h-4v-8h4v4" fill-rule="evenodd" stroke="none"/></svg>