<svg xmlns="http://www.w3.org/2000/svg" viewBox="0 0 24 24"><path d="M6.32 2.057A1.788 1.788 0 0 0 5.054 3.34c-.07.263-.078 3.824-.009 4.148.066.311.256.659.474.868.105.101 1.228.958 2.495 1.904 1.266.946 2.303 1.729 2.303 1.74-.001.011-1.081.829-2.401 1.817-1.321.989-2.451 1.862-2.513 1.94-.161.205-.306.51-.358.755-.069.324-.061 3.886.009 4.148.177.661.69 1.157 1.338 1.295.299.063 10.915.064 11.216 0a1.768 1.768 0 0 0 1.347-1.347c.071-.335.061-3.846-.012-4.12a1.877 1.877 0 0 0-.362-.708c-.071-.088-1.203-.97-2.515-1.96-1.311-.99-2.385-1.809-2.385-1.82 0-.02.343-.28 3.239-2.457.781-.587 1.503-1.157 1.604-1.266.213-.23.368-.528.431-.829.062-.292.062-3.766 0-4.056a1.77 1.77 0 0 0-1.288-1.336c-.291-.077-11.069-.076-11.347.001M16.998 5.49l-.001 1.49-.177.13-.177.13H7.312l-.156-.123L7 6.993V4h10l-.002 1.49m-3.079 3.804c-.142.131-1.887 1.426-1.922 1.426-.042 0-1.957-1.429-1.957-1.461 0-.01.886-.019 1.969-.019 1.656 0 1.959.009 1.91.054m-2.823 6.879c.31.623 1.124.761 1.613.271.256-.255.27-.325.283-1.417.007-.546.027-.987.045-.98.018.007.916.679 1.996 1.493l1.963 1.48.002 1.49L17 20H7v-2.999l1.99-1.494 1.99-1.493.02 1.003c.018.879.029 1.022.096 1.156" fill-rule="evenodd"/></svg>