<svg xmlns="http://www.w3.org/2000/svg" viewBox="0 0 24 24"><path d="M3.4 2.293a1.548 1.548 0 0 0-1.117 1.151c-.047.225-.047 10.887 0 11.112.086.41.421.852.777 1.023.377.181.019.171 5.94.171s5.563.01 5.94-.171c.214-.103.536-.425.639-.639.181-.377.171-.019.171-5.94s.01-5.563-.171-5.94c-.103-.214-.425-.536-.639-.639-.378-.181-.016-.171-5.954-.168-4.234.002-5.465.01-5.586.04m8.989 8.604 1.859 2.603H3.75l1.13-1.506 1.13-1.506.873.895.873.896.077-.102c.041-.056.654-.956 1.362-2 .707-1.044 1.297-1.895 1.31-1.89.014.004.861 1.179 1.884 2.61" fill-rule="evenodd"/></svg>