<svg xmlns="http://www.w3.org/2000/svg" viewBox="0 0 24 24" stroke="currentColor" stroke-width="2" stroke-linecap="round" stroke-linejoin="round" class="feather feather-inbox"><path d="M6.738 3.043c-.781.133-1.584.662-2.008 1.324-.075.117-.946 1.83-1.935 3.807L.997 11.768l.013 3.386c.012 2.955.022 3.411.077 3.586.357 1.127 1.049 1.819 2.173 2.175.179.057 1.066.065 8.56.075 5.689.008 8.447-.001 8.633-.03a3.032 3.032 0 0 0 2.306-1.8c.228-.539.216-.346.231-4.006l.013-3.386-1.785-3.572c-.982-1.964-1.848-3.671-1.925-3.794-.289-.458-.829-.926-1.314-1.141-.577-.255-.166-.238-5.859-.246-2.849-.003-5.271.009-5.382.028m10.358 2.022c.382.13.384.133 1.879 3.125a263.642 263.642 0 0 1 1.385 2.79c0 .011-1.015.02-2.255.02-2.434 0-2.441.001-2.722.215-.068.052-.526.699-1.019 1.439L13.467 14h-2.934l-.897-1.346c-.493-.74-.951-1.387-1.019-1.439-.281-.214-.288-.215-2.722-.215-1.24 0-2.254-.013-2.253-.03.001-.016.636-1.289 1.41-2.829C6.564 5.136 6.53 5.192 6.905 5.059c.129-.046.996-.056 5.078-.057 4.441-.002 4.941.004 5.113.063m-8.732 9.281c.493.74.951 1.387 1.019 1.439.28.214.297.215 2.617.215s2.337-.001 2.617-.215c.068-.052.526-.699 1.019-1.439L16.533 13H21v2.573c0 2.904.008 2.821-.299 3.128-.325.325.443.299-8.701.299s-8.376.026-8.701-.299C2.992 18.394 3 18.477 3 15.573V13h4.467l.897 1.346" fill-rule="evenodd" stroke="none"/></svg>