<svg xmlns="http://www.w3.org/2000/svg" viewBox="0 0 24 24" stroke="currentColor" stroke-width="2" stroke-linecap="round" stroke-linejoin="round" class="feather feather-info-filled"><path d="M9.26.023a37.61 37.61 0 0 1-.5.06c-1.74.198-3.477.924-4.96 2.071-.439.34-1.308 1.21-1.649 1.651C1.042 5.237.373 6.804.092 8.628c-.092.6-.092 2.144 0 2.744.448 2.909 1.971 5.336 4.348 6.928 1.321.884 2.676 1.393 4.34 1.629.54.076 2.01.064 2.6-.023a10.107 10.107 0 0 0 4.14-1.579c2.467-1.652 3.984-4.097 4.408-7.107.067-.474.066-1.972-.002-2.46-.261-1.875-.986-3.586-2.119-5A10.032 10.032 0 0 0 11.4.099C10.968.036 9.531-.014 9.26.023M11 6v1H9V5h2v1m0 6v3H9V9h2v3" stroke="none"/></svg>