<svg xmlns="http://www.w3.org/2000/svg" viewBox="0 0 24 24"><path d="M2.835.507a2.008 2.008 0 0 0-1.766 1.478c-.051.197-.061.281-.066.573l-.005.272H.656c-.385 0-.423.005-.513.066a.38.38 0 0 0-.083.082C-.004 3.075 0 2.923.002 5.19l.003 2.065.034.063c.04.074.084.115.161.151l.055.026h5.49l.055-.026a.304.304 0 0 0 .162-.157l.033-.067.003-2.059c.002-2.267.007-2.11-.059-2.21a.38.38 0 0 0-.083-.082c-.09-.059-.13-.064-.512-.064h-.342l-.005-.272c-.005-.292-.015-.376-.066-.573A2.016 2.016 0 0 0 4.085.82a2.052 2.052 0 0 0-1.25-.313m.386.679a1.34 1.34 0 0 1 1.053.924c.045.152.056.244.056.491v.229H1.67v-.229c0-.159.005-.255.015-.317a1.339 1.339 0 0 1 1.09-1.098c.11-.02.329-.02.446 0M3.164 4.19a.61.61 0 0 1 .302.175c.12.12.174.231.195.4a.675.675 0 0 1-.275.61l-.056.038v.757h-.66v-.757l-.056-.038a.678.678 0 0 1-.269-.434.64.64 0 0 1 .063-.411.75.75 0 0 1 .279-.283.683.683 0 0 1 .477-.057" fill-rule="evenodd"/></svg>