<svg xmlns="http://www.w3.org/2000/svg" viewBox="0 0 24 24" stroke="currentColor" stroke-width="2" stroke-linecap="round" stroke-linejoin="round" class="feather feather-log-out"><path d="M4.62 2.025c-.408.08-.533.114-.75.202-.881.358-1.549 1.137-1.794 2.093-.083.327-.084 15.031 0 15.357.283 1.103 1.038 1.876 2.184 2.235.17.054.554.065 2.533.078 2.649.016 2.598.021 2.907-.288a.984.984 0 0 0 .001-1.403C9.399 19.997 9.427 20 7 20s-2.399.003-2.701-.299c-.324-.324-.299.325-.297-7.718.001-5.879.011-7.19.055-7.313.079-.221.241-.414.454-.539L4.7 4.02 6.98 4l2.28-.02.19-.094c.601-.296.73-1.108.251-1.587-.304-.304-.263-.3-2.778-.294a87.455 87.455 0 0 0-2.303.02m11.023 4.044C15.291 6.193 15 6.614 15 7c0 .08.029.234.065.343.059.177.244.376 1.789 1.927L18.578 11h-4.862c-5.465 0-5.098-.02-5.417.299a.984.984 0 0 0 0 1.402c.319.319-.048.299 5.417.299h4.862l-1.724 1.73c-1.545 1.551-1.73 1.75-1.789 1.927-.129.389-.044.766.234 1.044s.654.363 1.044.234c.179-.059.44-.307 2.831-2.69 2.864-2.854 2.825-2.809 2.825-3.245 0-.436.039-.391-2.825-3.245-2.391-2.383-2.652-2.631-2.831-2.69a1.032 1.032 0 0 0-.7.004" fill-rule="evenodd" stroke="none"/></svg>