<svg xmlns="http://www.w3.org/2000/svg" viewBox="0 0 24 24"><path d="M7.519 1.627c-2.431.219-4.474 1.832-5.222 4.122-.609 1.865-.266 3.883.936 5.502.139.188.791.859 2.478 2.549L8 16.093l2.289-2.293c1.687-1.69 2.339-2.361 2.478-2.549a6.156 6.156 0 0 0 1.046-2.171c.13-.506.171-.849.172-1.453.001-.579-.024-.833-.135-1.328a5.986 5.986 0 0 0-3.17-4.053 5.9 5.9 0 0 0-2.52-.63 6.405 6.405 0 0 0-.641.011m.853 1.334c2.268.201 4.015 1.909 4.267 4.172.134 1.2-.248 2.475-1.028 3.427-.078.095-.922.953-1.876 1.907L8 14.2l-1.735-1.733c-.954-.954-1.798-1.812-1.877-1.907A4.663 4.663 0 0 1 3.8 5.587c.767-1.597 2.312-2.584 4.147-2.649.066-.002.257.008.425.023m-.705 2.003c-1.379.175-2.406 1.403-2.325 2.781a2.677 2.677 0 0 0 1.991 2.445c.194.052.292.061.667.061.375 0 .473-.009.667-.061a2.682 2.682 0 0 0 1.911-1.923c.401-1.569-.662-3.108-2.284-3.306a2.03 2.03 0 0 0-.627.003m.546 1.331c.565.091 1.02.558 1.102 1.133A1.326 1.326 0 0 1 8 8.933a1.326 1.326 0 0 1-.579-2.518c.279-.134.499-.167.792-.12" fill-rule="evenodd"/></svg>