<svg xmlns="http://www.w3.org/2000/svg" viewBox="0 0 24 24"><path d="m4.62 2.025-.29.058c-.88.178-1.753.913-2.093 1.762-.232.578-.214-.135-.227 8.953-.013 9.366-.038 8.576.288 8.902.279.279.655.364 1.045.235.177-.059.391-.258 2.137-1.999l1.94-1.934 6.06-.012c6.641-.013 6.118.006 6.718-.248.833-.354 1.492-1.14 1.726-2.062.083-.327.083-11.033 0-11.36a3.28 3.28 0 0 0-.808-1.436c-.38-.38-.75-.592-1.416-.81-.129-.043-1.577-.054-7.58-.059-4.081-.004-7.456.001-7.5.01m14.72 2.041c.115.039.263.135.361.233.32.32.299-.082.299 5.701 0 5.783.021 5.381-.299 5.701-.322.322.202.299-6.701.299-5.588 0-6.164.006-6.343.066-.174.057-.342.21-1.427 1.288L4 18.577v-6.861c0-7.706-.025-7.093.3-7.418.316-.316-.325-.291 7.683-.295 6.567-.003 7.179.003 7.357.063" fill-rule="evenodd"/></svg>