<svg xmlns="http://www.w3.org/2000/svg" viewBox="0 0 24 24" stroke="currentColor" stroke-width="2" stroke-linecap="round" stroke-linejoin="round" class="feather feather-message-circle"><path d="M11.74 2.027a9.497 9.497 0 0 0-3.601 1.048 8.89 8.89 0 0 0-2.273 1.643c-.796.774-1.35 1.537-1.864 2.568a9.507 9.507 0 0 0-.725 6.496c.074.306.246.831.445 1.358l.091.24-.907 2.722C2.325 19.848 2 20.881 2 20.985 2 21.535 2.465 22 3.015 22c.104 0 1.137-.325 2.883-.906l2.722-.907.24.09c1.279.48 2.118.662 3.28.709 2.165.09 4.312-.585 6.096-1.916.433-.323 1.358-1.226 1.694-1.653.829-1.055 1.512-2.457 1.81-3.717.227-.958.317-2.235.222-3.16a9.403 9.403 0 0 0-2.847-5.88 9.383 9.383 0 0 0-5.475-2.602c-.41-.049-1.47-.067-1.9-.031m1.815 2.035c4.038.59 6.842 4.186 6.403 8.21a7.507 7.507 0 0 1-5.843 6.543c-1.625.36-3.138.198-4.761-.509-.651-.285-.545-.302-2.812.453a70.085 70.085 0 0 1-1.929.628c-.006-.007.276-.875.628-1.929.755-2.267.738-2.161.453-2.812-.816-1.872-.913-3.685-.295-5.533a7.522 7.522 0 0 1 6.281-5.069c.508-.057 1.42-.048 1.875.018" fill-rule="evenodd" stroke="none"/></svg>