<svg xmlns="http://www.w3.org/2000/svg" viewBox="0 0 24 24"><path d="M3.08 1.52a1.84 1.84 0 0 0-1.388 1.009c-.048.098-.109.25-.136.338-.046.152-.048.437-.056 5.662-.005 3.765.001 5.534.02 5.605a.5.5 0 0 0 .616.346c.105-.028.249-.162 1.424-1.335l1.307-1.304 4.053-.008c3.801-.008 4.063-.011 4.213-.056a1.895 1.895 0 0 0 1.312-1.327c.046-.16.048-.377.048-3.783 0-3.406-.002-3.623-.048-3.784a1.897 1.897 0 0 0-1.312-1.327c-.151-.045-.434-.048-5.04-.052-2.684-.003-4.94.005-5.013.016m9.945 1.065a.866.866 0 0 1 .39.39l.065.132v7.12l-.065.131a.873.873 0 0 1-.39.391l-.132.064-4.186.014c-3.453.011-4.199.019-4.254.049-.036.02-.489.458-1.006.973l-.94.937V3.175l.055-.148a.872.872 0 0 1 .457-.464c.14-.053.17-.054 5.008-.048l4.866.005.132.065M5.236 6.048c-.694.248-.762 1.193-.11 1.529.16.082.472.099.664.035.19-.063.422-.291.485-.477a.969.969 0 0 0-.02-.646c-.178-.383-.633-.58-1.019-.441m2.666 0c-.693.247-.761 1.194-.11 1.529.161.082.472.099.664.035a.89.89 0 0 0 .489-.486c.18-.544-.171-1.085-.728-1.117a.737.737 0 0 0-.315.039m2.667 0c-.694.248-.762 1.193-.11 1.529.161.082.472.099.664.035a.883.883 0 0 0 .489-.489c.064-.192.047-.503-.035-.664-.186-.362-.635-.545-1.008-.411" fill-rule="evenodd"/></svg>