<svg xmlns="http://www.w3.org/2000/svg" viewBox="0 0 24 24"><path d="M11.26 1.056c-.898.151-1.702.5-2.364 1.027a6.058 6.058 0 0 0-1.03 1.106l-.182.271.748.751.748.751.091-.204c.671-1.515 2.518-2.18 4.037-1.454a3.022 3.022 0 0 1 1.651 2.228c.054.333.054 4.667 0 4.952l-.04.214.77.772.771.773.127-.271c.156-.331.285-.791.358-1.272.081-.536.078-4.887-.004-5.42a4.481 4.481 0 0 0-.46-1.465c-.694-1.421-1.94-2.388-3.501-2.716-.426-.09-1.31-.111-1.72-.043M2.11 2.11l-.71.711L4.2 5.62 7 8.42v.96c.001 1.411.099 1.945.518 2.8.814 1.665 2.392 2.709 4.246 2.809a5.196 5.196 0 0 0 1.401-.13l.215-.057.769.768c.423.422.756.781.74.797-.119.118-1.192.443-1.849.559-.44.078-1.723.067-2.183-.019a7.325 7.325 0 0 1-3.041-1.297c-.471-.35-1.171-1.061-1.506-1.532-.526-.736-.997-1.823-1.173-2.708L5.063 11H3.052l.056.37c.589 3.837 3.626 6.896 7.452 7.508l.42.067.01 2.027.011 2.028h1.998l.011-2.029.01-2.03.332-.047a8.933 8.933 0 0 0 2.548-.791l.52-.253 2.38 2.373 2.38 2.374.713-.705.713-.706-9.893-9.893L2.82 1.4l-.71.71m16.751 9.26c-.109.571-.314 1.155-.626 1.785l-.285.574.714.715.714.714.215-.329c.281-.429.725-1.344.9-1.851a9.63 9.63 0 0 0 .4-1.608l.054-.37h-2.015l-.071.37" fill-rule="evenodd"/></svg>