<svg xmlns="http://www.w3.org/2000/svg" viewBox="0 0 24 24"><path d="M7.693.186c-1.062.15-1.856.867-2.128 1.921l-.058.226v6l.058.227c.199.772.648 1.336 1.328 1.669.405.198.676.26 1.12.259a2.02 2.02 0 0 0 .604-.069 2.525 2.525 0 0 0 1.816-1.847l.06-.239v-6l-.06-.238A2.523 2.523 0 0 0 9.097.427c-.4-.2-.986-.3-1.404-.241m.668 1.028a1.51 1.51 0 0 1 1.092 1.092c.061.239.061 5.816 0 6.055a1.511 1.511 0 0 1-1.092 1.092c-.789.201-1.61-.293-1.814-1.092-.061-.239-.061-5.816 0-6.055a1.516 1.516 0 0 1 1.08-1.09 1.78 1.78 0 0 1 .734-.002M3.179 6.189a.617.617 0 0 0-.324.336c-.036.13-.037 1.495-.002 1.888.097 1.06.504 2.072 1.149 2.854.17.207.579.612.785.778.398.322 1.04.669 1.565.847.285.096.852.227.986.228.163 0 .155-.045.155.868v.837l-1.155.007-1.155.008-.108.072a.493.493 0 0 0 0 .843l.108.072h5.634l.108-.072a.496.496 0 0 0-.01-.852l-.102-.063-1.153-.008-1.153-.007v-1.677l.06-.011c.033-.006.206-.037.385-.067 1.655-.285 3.135-1.479 3.807-3.07.327-.776.425-1.423.41-2.72-.01-.835-.019-.875-.233-1.026-.093-.066-.139-.08-.264-.08a.478.478 0 0 0-.427.234l-.072.108-.016 1.029c-.015.91-.023 1.058-.073 1.284a4.452 4.452 0 0 1-.648 1.524c-.219.323-.757.863-1.076 1.078-.457.309-.918.51-1.469.639-.294.069-.359.075-.878.076-.491.001-.594-.007-.84-.062-1.268-.282-2.293-1.058-2.866-2.168a3.989 3.989 0 0 1-.377-1.025c-.072-.31-.074-.341-.089-1.344-.014-1.022-.015-1.027-.078-1.129a.528.528 0 0 0-.584-.229" fill-rule="evenodd"/></svg>