<svg xmlns="http://www.w3.org/2000/svg" viewBox="0 0 24 24"><path d="M6.657 1.043a2.967 2.967 0 0 0-1.76.854c-.494.493-.773 1.084-.856 1.813-.055.478-.055 16.102 0 16.58.083.729.362 1.32.856 1.813.493.494 1.084.773 1.813.856.472.054 10.108.054 10.58 0 .729-.083 1.32-.362 1.813-.856.494-.493.773-1.084.856-1.813.055-.478.055-16.102 0-16.58-.083-.729-.362-1.32-.856-1.813-.493-.494-1.084-.773-1.813-.856-.425-.049-10.215-.046-10.633.002m10.72 2.013c.194.081.446.323.541.519C18 3.745 18 3.749 18 12v8.255l-.083.172c-.103.213-.399.479-.592.532-.094.026-1.986.041-5.362.041-5.186 0-5.219-.001-5.388-.082a1.265 1.265 0 0 1-.519-.541c-.084-.201-.084-16.553 0-16.754.08-.192.32-.443.516-.54C6.74 3 6.75 3 11.991 3c4.416 0 5.273.009 5.386.056m-5.588 13.986a.91.91 0 0 0-.517.31.97.97 0 0 0 .063 1.36.99.99 0 0 0 1.568-.299.95.95 0 0 0 .075-.413c0-.293-.08-.495-.269-.684a1.008 1.008 0 0 0-.92-.274" fill-rule="evenodd"/></svg>