<svg xmlns="http://www.w3.org/2000/svg" viewBox="0 0 24 24"><path d="M1.81 5.062c-.576.155-1.007.56-1.217 1.141L.5 6.46v11.08l.093.257c.213.59.644.989 1.234 1.143.201.052 1.478.06 10.173.06 8.804 0 9.97-.007 10.179-.061.701-.183 1.204-.764 1.3-1.501.052-.399.052-10.477 0-10.876-.096-.737-.599-1.318-1.3-1.501-.209-.054-1.371-.061-10.197-.058-8.453.002-9.994.011-10.172.059M4.8 7.017c0 .02-2.156 1.912-2.23 1.957-.039.024-.05-.18-.05-.972V7h1.14c.627 0 1.14.008 1.14.017m14.003 2.326 2.677 2.342v.63l-2.677 2.342L16.126 17H7.88l-2.681-2.345-2.682-2.345.011-.32.012-.32L5.2 9.338l2.66-2.332 4.133-.003L16.126 7l2.677 2.343m2.677-1.341c0 .962-.003 1-.073.95A107.13 107.13 0 0 1 19.2 7.015c0-.008.513-.015 1.14-.015h1.14v1.002m-10.17.061a3.918 3.918 0 0 0-2.131 1.116 3.903 3.903 0 0 0-1.165 3.001c.096 1.833 1.332 3.307 3.126 3.725.464.109 1.319.102 1.78-.014a4.03 4.03 0 0 0 2.971-2.971c.116-.461.123-1.316.014-1.78-.49-2.102-2.51-3.454-4.595-3.077m1.098 1.981C13.31 10.232 14 11.08 14 12c0 1.08-.92 2-2 2s-2-.92-2-2c0-.898.657-1.731 1.534-1.943.263-.064.604-.069.874-.013M3.71 16.011c.599.526 1.09.963 1.09.972 0 .009-.513.017-1.14.017H2.52v-1.002c0-.792.011-.996.05-.972.028.017.54.46 1.14.985m17.757.976c-.008.008-.524.009-1.147.004l-1.132-.011 1.136-.994 1.136-.993.011.989c.006.545.004.997-.004 1.005" fill-rule="evenodd"/></svg>