<svg xmlns="http://www.w3.org/2000/svg" viewBox="0 0 24 24"><path d="M7.107 1.391c-1.044.159-1.936.496-2.774 1.047-1.62 1.066-2.672 2.755-2.951 4.735-.051.364-.043 1.373.013 1.742.296 1.935 1.314 3.557 2.898 4.618.881.59 1.787.93 2.894 1.086.313.044 1.316.044 1.626-.001a6.922 6.922 0 0 0 2.107-.63 6.671 6.671 0 0 0 3.681-5.065c.046-.323.051-.533.011-.464-.045.077-.597.538-.831.693-.59.393-1.258.66-1.954.783a6.194 6.194 0 0 1-1.347.04C8.27 9.724 6.545 8.15 6.094 5.973a5.476 5.476 0 0 1-.057-1.592c.139-1.051.555-1.947 1.283-2.762l.231-.259-.142.003a2.781 2.781 0 0 0-.302.028" fill-rule="evenodd"/></svg>