<svg xmlns="http://www.w3.org/2000/svg" viewBox="0 0 24 24" stroke="currentColor" stroke-width="2" stroke-linecap="round" stroke-linejoin="round" class="feather feather-more-horizontal"><path d="M4.534 10.057C3.657 10.269 3 11.102 3 12c0 1.08.92 2 2 2 .523 0 1.017-.21 1.404-.596.796-.797.796-2.011 0-2.808a1.969 1.969 0 0 0-1.87-.539m7 0C10.657 10.269 10 11.102 10 12c0 1.08.92 2 2 2s2-.92 2-2c0-1.096-.934-2.013-2.032-1.997a2.342 2.342 0 0 0-.434.054m7 0C17.657 10.269 17 11.102 17 12c0 1.08.92 2 2 2s2-.92 2-2c0-1.096-.934-2.013-2.032-1.997a2.342 2.342 0 0 0-.434.054" fill-rule="evenodd" stroke="none"/></svg>