<svg xmlns="http://www.w3.org/2000/svg" viewBox="0 0 24 24"><path d="M10.021.468a3.418 3.418 0 0 0-1.327.538c-.189.132-6.592 6.506-6.839 6.807a4.25 4.25 0 0 0-.55.867 4.418 4.418 0 0 0-.355 2.972c.09.402.165.61.372 1.028.22.443.459.778.811 1.135a4.51 4.51 0 0 0 2.589 1.307c.289.042.963.042 1.238 0a4.625 4.625 0 0 0 2.24-.99c.103-.085 1.617-1.586 3.365-3.337 2.902-2.906 3.18-3.192 3.209-3.299a.485.485 0 0 0-.227-.55.548.548 0 0 0-.475-.023c-.047.023-1.537 1.492-3.312 3.264-2.901 2.896-3.252 3.238-3.477 3.384-.602.392-1.115.555-1.83.58a3.085 3.085 0 0 1-1.179-.154 3.446 3.446 0 0 1-1.409-.862 3.446 3.446 0 0 1-.862-1.409 3.085 3.085 0 0 1-.154-1.179c.02-.558.112-.942.337-1.411.246-.511.162-.421 3.652-3.918 1.798-1.802 3.341-3.327 3.429-3.39a2.16 2.16 0 0 1 2.723.179 2.169 2.169 0 0 1 .341 2.775c-.097.152-.781.849-3.313 3.381-3.485 3.482-3.284 3.298-3.634 3.324a.813.813 0 0 1-.782-.422c-.064-.117-.081-.185-.09-.359-.021-.406-.263-.133 3.037-3.439C9.2 5.613 10.49 4.301 10.505 4.258a.693.693 0 0 0 0-.383c-.096-.252-.423-.372-.677-.249-.073.036-1.046.993-3.042 2.993-3.178 3.184-3.061 3.057-3.199 3.494a1.837 1.837 0 0 0 1.36 2.342c.382.084.88.012 1.252-.183.242-.126.426-.304 3.979-3.859 2.114-2.114 2.832-2.849 2.934-3 .864-1.282.735-2.918-.317-4.014a3.175 3.175 0 0 0-2.774-.931" fill-rule="evenodd"/></svg>