<svg xmlns="http://www.w3.org/2000/svg" viewBox="0 0 24 24" stroke="currentColor" stroke-width="2" stroke-linecap="round" stroke-linejoin="round" class="feather feather-pause"><path d="M5.643 3.069a1.118 1.118 0 0 0-.343.229C4.973 3.624 5 2.855 5 12c0 9.144-.026 8.376.299 8.701.302.302.274.299 2.701.299s2.399.003 2.701-.299c.325-.325.299.443.299-8.701s.026-8.376-.299-8.701c-.303-.303-.271-.299-2.718-.296-1.851.003-2.188.012-2.34.066m8 0a1.118 1.118 0 0 0-.343.229c-.327.326-.3-.443-.3 8.702 0 9.144-.026 8.376.299 8.701.302.302.274.299 2.701.299s2.399.003 2.701-.299c.325-.325.299.443.299-8.701s.026-8.376-.299-8.701c-.303-.303-.271-.299-2.718-.296-1.851.003-2.188.012-2.34.066M9 12v7H7V5h2v7m8 0v7h-2V5h2v7" fill-rule="evenodd" stroke="none"/></svg>