<svg xmlns="http://www.w3.org/2000/svg" viewBox="0 0 24 24"><path d="M18.531 1.2a4.049 4.049 0 0 0-1.643.608c-.254.165-1.513 1.403-7.221 7.106-3.802 3.798-6.957 6.98-7.011 7.071C2.541 16.179 1 21.777 1 22.002c0 .524.474.998.998.998.186 0 5.781-1.527 5.986-1.633.095-.05 2.85-2.778 7.08-7.014 7.277-7.287 7.127-7.129 7.422-7.78.229-.505.324-.965.324-1.573 0-.455-.017-.603-.105-.94-.372-1.414-1.502-2.505-2.902-2.799-.364-.077-.958-.105-1.272-.061m.84 2.019a1.827 1.827 0 0 1 1.43 1.505c.059.35.001.725-.166 1.082-.11.235-.616.751-6.891 7.028l-6.772 6.774-1.751.478c-.963.263-1.758.47-1.767.462-.009-.009.2-.806.463-1.77l.479-1.754 6.751-6.751c7.278-7.278 6.913-6.933 7.464-7.052.325-.071.434-.071.76-.002" fill-rule="evenodd"/></svg>