<svg xmlns="http://www.w3.org/2000/svg" viewBox="0 0 24 24"><path d="M17.56 1.905c-.501.097-.97.285-1.36.546-.291.194-12.989 12.902-13.079 13.089C3.025 15.739 2 19.829 2 20.012c0 .509.479.988.988.988.183 0 4.273-1.025 4.472-1.121.187-.09 12.895-12.788 13.089-13.079.196-.293.364-.655.46-.988.128-.446.127-1.181-.002-1.63a3.186 3.186 0 0 0-2.227-2.204c-.237-.063-1.026-.111-1.22-.073m.799 2.038c.296.088.61.402.698.698.08.269.08.447 0 .722-.062.213-.192.346-6.321 6.478l-6.257 6.261-1.021.254c-.562.14-1.032.243-1.045.231-.012-.013.091-.483.231-1.045l.254-1.021 6.261-6.257c5.911-5.908 6.272-6.262 6.461-6.318.263-.079.478-.08.739-.003m-6.716 15.126c-.352.124-.643.545-.643.931 0 .242.119.521.299.701.318.319-.022.299 5.201.299s4.883.02 5.201-.299a.984.984 0 0 0 0-1.402c-.319-.319.025-.299-5.218-.296-4.116.003-4.684.011-4.84.066" fill-rule="evenodd"/></svg>