<svg xmlns="http://www.w3.org/2000/svg" viewBox="0 0 24 24" stroke="currentColor" stroke-width="2" stroke-linecap="round" stroke-linejoin="round" class="feather feather-phone-off"><path d="M22.64.068c-.158.053-1.525 1.405-11.311 11.186C3.131 19.448.176 22.426.113 22.556A.986.986 0 0 0 .298 23.7c.279.279.655.364 1.045.235.18-.059.475-.342 3.365-3.228l3.168-3.162.272.24c1.463 1.29 3.402 2.539 5.217 3.358a20.942 20.942 0 0 0 5.686 1.654c1.044.147 1.61.098 2.209-.191.652-.316 1.127-.779 1.42-1.386.303-.628.3-.597.3-2.84 0-2.247.003-2.219-.303-2.843a2.97 2.97 0 0 0-1.714-1.503 7.619 7.619 0 0 0-.821-.177c-.78-.131-1.247-.249-2.082-.525-.643-.213-.706-.226-1.167-.243-.579-.022-.934.043-1.369.252-.43.206-.618.347-1.13.849l-.466.458-.355-.239a18.54 18.54 0 0 1-1.298-.985l-.144-.124 5.87-5.88c5.403-5.413 5.875-5.896 5.934-6.077.128-.39.044-.766-.234-1.044A1.006 1.006 0 0 0 22.64.068m-19.12.993c-.797.176-1.501.655-1.925 1.311a3.52 3.52 0 0 0-.431 1.085c-.087.469-.034 1.134.18 2.303.459 2.5 1.317 4.774 2.648 7.019.48.809.737 1.021 1.235 1.021.582 0 1.059-.584.941-1.151-.031-.148-.172-.425-.468-.92A18.948 18.948 0 0 1 3.345 5.58c-.126-.654-.225-1.365-.225-1.614 0-.393.334-.822.722-.927.104-.028.745-.038 1.868-.031 1.664.012 1.714.014 1.87.098.369.2.475.404.604 1.166.125.742.326 1.543.556 2.223.199.584.227.862.116 1.13-.042.101-.339.433-.856.956-.726.734-.797.818-.856 1.017-.08.27-.08.334 0 .605.089.298.355.564.653.653.271.08.335.08.606 0 .198-.059.281-.128.97-.81.847-.838 1.051-1.086 1.273-1.546.217-.451.285-.81.264-1.4-.016-.454-.029-.517-.242-1.16-.276-.835-.394-1.302-.525-2.082a7.619 7.619 0 0 0-.177-.821 2.967 2.967 0 0 0-1.503-1.714c-.613-.3-.574-.296-2.743-.308-1.566-.009-1.99 0-2.2.046m7.57 13.97c.548.46.943.753 1.59 1.179 1.037.683 1.277.775 1.705.65.22-.064.276-.111 1.037-.863.493-.488.861-.819.95-.856.26-.109.553-.078 1.133.119.68.23 1.481.431 2.223.556.762.129.966.235 1.166.604.084.157.086.192.086 1.96 0 1.776-.001 1.802-.088 1.964a1.21 1.21 0 0 1-.529.486c-.431.181-2.633-.226-4.383-.81a19.232 19.232 0 0 1-5.438-2.87c-.498-.374-1.159-.921-1.206-.996-.014-.024.282-.351.668-.738.383-.383.7-.696.705-.696.006 0 .177.14.381.311" fill-rule="evenodd" stroke="none"/></svg>