<svg xmlns="http://www.w3.org/2000/svg" viewBox="0 0 24 24" stroke="currentColor" stroke-width="2" stroke-linecap="round" stroke-linejoin="round" class="feather feather-phone-missed"><path d="M16.643.069C16.291.193 16 .614 16 1c0 .08.03.234.066.343.057.174.21.342 1.288 1.427L18.577 4l-1.223 1.23c-1.078 1.085-1.231 1.253-1.288 1.427-.13.389-.045.766.233 1.044s.655.363 1.044.233c.174-.057.342-.21 1.427-1.288L20 5.423l1.23 1.223c1.085 1.078 1.253 1.231 1.427 1.288.389.13.766.045 1.044-.233s.363-.655.233-1.044c-.057-.174-.21-.342-1.288-1.427L21.423 4l1.223-1.23c1.078-1.085 1.231-1.253 1.288-1.427.13-.389.045-.766-.233-1.044s-.655-.363-1.044-.233c-.174.057-.342.21-1.427 1.288L20 2.577l-1.23-1.223C17.685.276 17.517.123 17.343.066a1.026 1.026 0 0 0-.7.003M3.52 1.061c-.797.176-1.501.655-1.925 1.311-.192.298-.376.77-.438 1.128-.15.862.278 3.228.941 5.2 1.346 4.006 3.905 7.574 7.216 10.06a21.806 21.806 0 0 0 5.678 3.068c1.788.636 4.179 1.133 5.188 1.08 1.094-.058 2.034-.688 2.519-1.688.282-.583.281-.573.281-2.82 0-2.269.003-2.238-.303-2.863a2.97 2.97 0 0 0-1.714-1.503 7.619 7.619 0 0 0-.821-.177c-.78-.131-1.247-.249-2.082-.525-.643-.213-.706-.226-1.167-.243-.579-.022-.934.043-1.369.252-.43.206-.618.347-1.13.85l-.467.458-.413-.282a15.322 15.322 0 0 1-3.923-3.94l-.238-.354.456-.466c.506-.519.651-.712.853-1.139.202-.425.269-.791.248-1.368-.016-.454-.029-.517-.242-1.16-.276-.835-.394-1.302-.525-2.082a7.619 7.619 0 0 0-.177-.821 2.967 2.967 0 0 0-1.503-1.714c-.613-.3-.574-.296-2.743-.308-1.566-.009-1.99 0-2.2.046m4.06 2.045c.369.2.475.404.604 1.166.125.742.326 1.543.556 2.223.199.584.227.862.116 1.13-.042.101-.34.433-.857.956-.754.764-.795.813-.861 1.04-.124.424-.007.718.714 1.799a17.01 17.01 0 0 0 4.628 4.657c1.178.794 1.464.912 1.899.785.227-.066.276-.106 1.043-.865.493-.488.861-.819.95-.856.26-.109.553-.078 1.133.119.679.23 1.481.431 2.222.556.764.129.974.241 1.178.624.069.129.076.272.087 1.87.007 1.136-.003 1.784-.031 1.888-.105.388-.534.722-.927.722-.249 0-.96-.099-1.614-.225-4.886-.942-9.319-3.845-12.058-7.895-1.318-1.951-2.181-3.828-2.739-5.962-.253-.969-.501-2.38-.502-2.861-.001-.255.16-.586.364-.748.286-.227.3-.228 2.195-.218 1.698.009 1.744.011 1.9.095" fill-rule="evenodd" stroke="none"/></svg>