<svg xmlns="http://www.w3.org/2000/svg" viewBox="0 0 24 24" stroke="currentColor" stroke-width="2" stroke-linecap="round" stroke-linejoin="round" class="feather feather-play"><path d="M4.643 2.069a1.066 1.066 0 0 0-.577.591C4.005 2.839 4 3.592 4 12c0 10.264-.027 9.375.299 9.701a.977.977 0 0 0 1.015.241c.263-.093 14.351-9.167 14.466-9.318a1.02 1.02 0 0 0 0-1.248c-.115-.151-14.203-9.225-14.466-9.318a1.011 1.011 0 0 0-.671.011m6.972 6.371c3.028 1.947 5.505 3.549 5.505 3.56 0 .015-10.82 6.989-11.065 7.132C6.008 19.159 6 18.066 6 12s.008-7.159.055-7.132c.03.018 2.532 1.625 5.56 3.572" fill-rule="evenodd" stroke="none"/></svg>