<svg xmlns="http://www.w3.org/2000/svg" viewBox="0 0 24 24" stroke="currentColor" stroke-width="2" stroke-linecap="round" stroke-linejoin="round" class="feather feather-play-circle"><path d="M11.16 1.025c-1.859.175-3.545.734-5.012 1.662a11.748 11.748 0 0 0-3.461 3.461C1.869 7.442 1.33 8.925 1.093 10.54c-.052.356-.07.733-.07 1.46s.018 1.104.07 1.46c.366 2.489 1.384 4.537 3.126 6.282.686.689 1.053.991 1.781 1.469 1.357.891 2.852 1.449 4.54 1.695.671.098 2.249.098 2.92 0 1.945-.283 3.631-.98 5.177-2.136.533-.4 1.615-1.46 2.009-1.97a11.152 11.152 0 0 0 2.26-5.34c.052-.355.07-.736.07-1.46s-.018-1.105-.07-1.46c-.292-2-1.028-3.742-2.259-5.34-.388-.503-1.474-1.567-2.01-1.969A10.98 10.98 0 0 0 13.6 1.118c-.525-.079-1.991-.135-2.44-.093m1.703 2.018a9.005 9.005 0 0 1 7.22 5.017c2.183 4.452.329 9.831-4.143 12.023-4.45 2.182-9.836.326-12.023-4.143a8.973 8.973 0 0 1 1.07-9.571 9.028 9.028 0 0 1 7.876-3.326m-3.22 4.026a1.118 1.118 0 0 0-.343.229C8.982 7.616 9 7.336 9 12c0 4.663-.018 4.384.299 4.701a.982.982 0 0 0 1.011.243c.238-.085 6.383-4.194 6.486-4.338a1.033 1.033 0 0 0 0-1.212c-.103-.144-6.248-4.253-6.486-4.338a1.013 1.013 0 0 0-.667.013m3.047 3.925c.808.538 1.47.991 1.47 1.006 0 .02-2.179 1.49-3.05 2.058l-.11.071V9.871l.11.071 1.58 1.052" fill-rule="evenodd" stroke="none"/></svg>