<svg xmlns="http://www.w3.org/2000/svg" viewBox="0 0 24 24"><path d="M4.62 2.025c-.408.08-.533.114-.75.202-.881.358-1.549 1.137-1.794 2.093-.083.327-.084 15.031 0 15.357.281 1.096 1.043 1.877 2.184 2.238.179.056.983.064 7.56.075 4.998.008 7.448-.001 7.633-.03 1.19-.183 2.167-1.084 2.471-2.28.083-.328.084-15.032 0-15.357-.307-1.197-1.264-2.09-2.444-2.28-.246-.04-14.661-.057-14.86-.018m14.72 2.041c.115.039.263.135.361.233.324.324.299-.322.299 7.701s.025 7.377-.299 7.701c-.324.324.322.299-7.701.299-8.025 0-7.377.025-7.702-.3-.324-.324-.3.328-.288-7.782L4.02 4.7l.111-.189c.125-.213.318-.375.539-.454.123-.044 1.434-.054 7.313-.055 6.565-.002 7.179.004 7.357.064m-7.697 3.003a1.066 1.066 0 0 0-.577.591c-.057.168-.066.408-.066 1.767V11H9.427c-1.789 0-1.836.006-2.128.299a.984.984 0 0 0 0 1.402c.292.293.339.299 2.128.299H11v1.573c0 1.789.006 1.836.299 2.128a.984.984 0 0 0 1.402 0c.293-.292.299-.339.299-2.128V13h1.573c1.789 0 1.836-.006 2.128-.299a.984.984 0 0 0 0-1.402c-.292-.293-.339-.299-2.128-.299H13V9.427c0-1.789-.006-1.836-.299-2.128a.998.998 0 0 0-1.058-.23" fill-rule="evenodd"/></svg>