<svg xmlns="http://www.w3.org/2000/svg" viewBox="0 0 24 24" stroke="currentColor" stroke-width="2" stroke-linecap="round" stroke-linejoin="round" class="feather feather-plus"><path d="M11.643 4.069a1.118 1.118 0 0 0-.343.229c-.312.312-.3.165-.3 3.629V11H7.927c-3.463 0-3.317-.012-3.628.299a.984.984 0 0 0 0 1.402c.311.311.165.299 3.628.299H11v3.073c0 3.463-.012 3.317.299 3.628a.984.984 0 0 0 1.402 0c.311-.311.299-.165.299-3.628V13h3.073c3.463 0 3.317.012 3.628-.299a.984.984 0 0 0 0-1.402c-.311-.311-.165-.299-3.628-.299H13V7.927c0-3.463.012-3.317-.299-3.628a.998.998 0 0 0-1.058-.23" fill-rule="evenodd" stroke="none"/></svg>