<svg xmlns="http://www.w3.org/2000/svg" viewBox="0 0 24 24"><path d="M11.12 2.039c-2.479.248-4.706 1.323-6.359 3.068a9.985 9.985 0 0 0-1.624 11.516 9.432 9.432 0 0 0 1.801 2.438c.992.99 2.1 1.728 3.334 2.217 3.362 1.332 7.041.802 9.928-1.433.437-.338 1.307-1.208 1.645-1.645C21.256 16.378 22 14.236 22 12c0-4.568-3.158-8.613-7.57-9.697-.984-.241-2.402-.355-3.31-.264m2.3 5.061c.424.089.938.284 1.319.502.318.182.843.594.981.769l.077.098-.843.562-.843.561-.166-.126c-.508-.388-1.284-.548-1.965-.406a2.541 2.541 0 0 0-1.874 1.73l-.062.21H15v2h-4.956l.062.21c.301 1.025 1.317 1.792 2.37 1.789.501-.001 1.123-.197 1.47-.461a.53.53 0 0 1 .171-.098c.024 0 .412.246.862.546l.819.545-.096.114c-.366.435-1.075.88-1.773 1.114-2.424.812-5.037-.555-5.743-3.003a5.065 5.065 0 0 1-.125-.546L8.032 13H7v-2h1.023l.069-.363c.353-1.868 1.859-3.29 3.808-3.595.335-.053 1.138-.022 1.52.058" fill-rule="evenodd"/></svg>