<svg xmlns="http://www.w3.org/2000/svg" viewBox="0 0 24 24"><path d="M14.564 1.623c-.477.129-.493.142-3.424 3.059l-2.8 2.785-.297-.071c-1.227-.297-2.684-.128-3.927.454-.671.314-1.521.896-1.769 1.21-.29.368-.428.887-.357 1.345.091.585.056.544 2.568 3.054l2.281 2.28-1.594 1.6c-1.777 1.784-1.749 1.748-1.718 2.235.033.515.392.87.911.899.485.027.472.037 2.243-1.734l1.578-1.578 2.301 2.293c2.688 2.679 2.489 2.526 3.28 2.526.439 0 .472-.006.729-.132.363-.177.609-.428.992-1.015 1.094-1.672 1.469-3.369 1.079-4.891l-.081-.319 2.775-2.781c2.531-2.538 2.786-2.805 2.903-3.046a1.728 1.728 0 0 0 0-1.592c-.117-.242-.377-.514-3.152-3.287-2.576-2.575-3.061-3.041-3.265-3.146a1.723 1.723 0 0 0-1.256-.148M17.68 6.34l2.659 2.659-2.925 2.931c-2.393 2.397-2.934 2.959-2.977 3.09-.087.263-.061.566.075.88.23.532.267.715.262 1.28-.005.57-.068.879-.294 1.448-.137.344-.473.972-.611 1.144l-.089.11-4.84-4.844-4.84-4.843.14-.119c.198-.169 1.044-.576 1.4-.674.165-.046.507-.103.76-.128.387-.039.528-.036.89.019.237.035.561.111.72.169.461.166.581.187.804.139.11-.024.255-.078.323-.12.068-.043 1.41-1.365 2.983-2.939A296.261 296.261 0 0 1 15 3.68c.011 0 1.217 1.197 2.68 2.66" fill-rule="evenodd"/></svg>