<svg xmlns="http://www.w3.org/2000/svg" viewBox="0 0 24 24"><path d="M14.564 1.623c-.466.126-.537.187-2.552 2.195-2.094 2.086-2.089 2.081-2.091 2.513-.002.402.192.721.54.891.252.123.602.139.845.038.108-.044.68-.589 1.924-1.831l1.771-1.768L17.67 6.33l2.669 2.669-1.945 1.951c-2.095 2.101-2.046 2.042-2.045 2.468a.97.97 0 0 0 .989.981c.446-.001.417.023 2.687-2.251 1.883-1.886 2.096-2.114 2.212-2.352a1.728 1.728 0 0 0 0-1.592c-.117-.242-.377-.514-3.152-3.287-2.576-2.575-3.061-3.041-3.265-3.146a1.723 1.723 0 0 0-1.256-.148M4.099 2.835a1.099 1.099 0 0 0-.504.504c-.106.233-.098.632.016.851.049.094.674.813 1.389 1.597a79.769 79.769 0 0 1 1.313 1.46c.008.018-.05.033-.128.033-.221 0-.954.152-1.341.279-.897.293-2.128 1.033-2.497 1.501-.29.368-.428.887-.357 1.345.091.585.056.544 2.568 3.054l2.281 2.28-1.594 1.6c-1.777 1.784-1.749 1.748-1.718 2.235.033.515.392.87.911.899.485.027.472.037 2.243-1.734l1.578-1.578 2.301 2.293c2.688 2.679 2.489 2.526 3.28 2.526.439 0 .472-.006.729-.132.363-.177.609-.428.991-1.012.4-.612.679-1.17.894-1.788l.167-.479.967 1.066c1.27 1.4 1.308 1.438 1.504 1.527.219.1.593.101.809.003.205-.093.411-.299.504-.504.106-.233.098-.632-.016-.851-.068-.13-14.404-15.957-15.162-16.739a1.32 1.32 0 0 0-.32-.234 1.142 1.142 0 0 0-.808-.002M7.332 9.3c.216.032.522.106.68.163.158.057.327.113.374.125.103.024 6.272 6.795 6.342 6.96.083.195.059 1.061-.04 1.442-.15.58-.549 1.447-.819 1.782l-.089.11-4.84-4.844-4.84-4.843.14-.119c.2-.17 1.046-.577 1.4-.673A3.89 3.89 0 0 1 7.332 9.3" fill-rule="evenodd"/></svg>