<svg xmlns="http://www.w3.org/2000/svg" viewBox="0 0 24 24"><path d="M11.42 2.026c-2.089.251-3.808 1.417-4.736 3.213-.488.944-.64 1.591-.672 2.871L5.99 9h2.001l.019-.81c.017-.7.033-.862.12-1.192A3.908 3.908 0 0 1 9.179 5.18a3.971 3.971 0 0 1 1.81-1.048c.514-.137 1.372-.154 1.871-.037a4.011 4.011 0 0 1 3.045 3.045c.109.464.1 1.44-.016 1.865-.225.826-.601 1.293-2.089 2.602-1.939 1.705-2.584 2.764-2.757 4.53-.024.24-.043.533-.043.65V17h2v-.25c0-.137.027-.421.058-.63.177-1.157.576-1.712 2.352-3.271 1.622-1.425 2.191-2.245 2.474-3.57.12-.562.133-1.786.024-2.339-.461-2.335-2.129-4.143-4.376-4.741-.599-.159-1.564-.238-2.112-.173m.136 17.047a1.518 1.518 0 0 0-.908.783c-.098.186-.108.243-.108.644 0 .403.009.458.11.649.144.272.308.456.541.604.754.48 1.747.209 2.137-.584.123-.248.132-.296.132-.669 0-.373-.009-.421-.131-.668a1.462 1.462 0 0 0-.761-.715c-.315-.12-.726-.138-1.012-.044" fill-rule="evenodd"/></svg>