<svg xmlns="http://www.w3.org/2000/svg" viewBox="0 0 24 24" stroke="currentColor" stroke-width="2" stroke-linecap="round" stroke-linejoin="round" class="feather feather-refresh-ccw"><path d="M10.96 2.057c-2.181.254-4.088 1.111-5.68 2.554-.209.19-1.028.955-1.82 1.702L2.02 7.67 2 5.705c-.02-1.96-.02-1.965-.114-2.155C1.59 2.949.778 2.82.299 3.299c-.312.312-.299.152-.298 3.738.001 3.116.002 3.187.082 3.363.11.242.257.391.497.505l.2.094L3.963 11c3.586 0 3.426.013 3.738-.299.479-.479.35-1.291-.251-1.587-.189-.093-.2-.094-2.046-.114l-1.856-.02 1.656-1.558c.917-.862 1.838-1.692 2.064-1.86a8.196 8.196 0 0 1 3.517-1.468c.588-.098 1.865-.098 2.433 0 1.41.243 2.599.753 3.682 1.58.339.26 1.025.932 1.311 1.286.501.62.937 1.37 1.252 2.151.179.443.265.577.447.697a.97.97 0 0 0 .671.18.965.965 0 0 0 .816-.588c.169-.374.091-.728-.374-1.7a9.99 9.99 0 0 0-6.863-5.459c-.953-.212-2.298-.289-3.2-.184m5.683 11.012c-.352.124-.643.545-.643.931 0 .242.119.521.299.701.297.297.313.299 2.358.3l1.803.001-.32.309c-1.196 1.154-3.059 2.867-3.36 3.09a8.116 8.116 0 0 1-3.56 1.505c-.557.096-1.886.095-2.438 0-1.473-.254-2.728-.811-3.822-1.695A10.805 10.805 0 0 1 5.674 16.9a8.773 8.773 0 0 1-1.137-2.011c-.179-.443-.265-.577-.447-.697-.428-.283-.967-.235-1.298.114-.282.299-.34.7-.168 1.182.407 1.144 1.233 2.458 2.143 3.412 1.591 1.665 3.615 2.685 6.013 3.027.531.076 1.968.065 2.56-.02 1.618-.232 3.188-.855 4.468-1.775.48-.344 1.01-.818 2.672-2.385l1.5-1.415.02 1.964c.02 1.959.02 1.964.114 2.154.296.601 1.108.73 1.587.251.312-.312.299-.152.299-3.738l-.001-3.183-.094-.2a.951.951 0 0 0-.505-.497c-.176-.08-.244-.081-3.38-.079-2.792.002-3.222.01-3.377.065" fill-rule="evenodd" stroke="none"/></svg>