<svg xmlns="http://www.w3.org/2000/svg" viewBox="0 0 24 24"><path d="M11.06 2.042c-4.424.459-7.961 3.648-8.854 7.982-.307 1.486-.263 2.972.133 4.516.5 1.946 1.66 3.791 3.2 5.087 3.013 2.536 7.204 3.087 10.732 1.411a9.571 9.571 0 0 0 2.791-1.976 9.631 9.631 0 0 0 1.943-2.722c.474-.984.56-1.368.392-1.74-.176-.388-.467-.576-.897-.578-.493-.003-.768.205-.986.745-.473 1.174-.989 1.983-1.791 2.807a7.621 7.621 0 0 1-2.252 1.626c-4.539 2.193-9.958-.33-11.211-5.218A7.873 7.873 0 0 1 4.448 9.4a7.648 7.648 0 0 1 1.908-3.043c1.226-1.224 2.66-1.958 4.424-2.263.555-.096 1.883-.096 2.44 0 1.184.203 2.244.612 3.176 1.226.539.355.749.539 2.457 2.148l1.604 1.512-1.858.02c-1.849.02-1.86.021-2.049.114-.601.296-.73 1.108-.251 1.587.312.312.152.299 3.738.299l3.183-.001.2-.094a.951.951 0 0 0 .497-.505c.08-.176.081-.247.082-3.363.001-3.586.014-3.426-.298-3.738-.479-.479-1.291-.35-1.587.251-.094.19-.094.195-.114 2.153l-.02 1.962-1.748-1.646c-.962-.905-1.889-1.755-2.06-1.887a10.14 10.14 0 0 0-4.787-2.035c-.499-.074-1.839-.105-2.325-.055" fill-rule="evenodd"/></svg>