<svg xmlns="http://www.w3.org/2000/svg" viewBox="0 0 24 24"><path d="m11.28 2.023-.52.06c-2.05.234-4.067 1.188-5.648 2.671-.736.691-1.536 1.759-2.008 2.682-.273.533-.603 1.363-.557 1.402.036.031 1.78.602 1.838.602.02 0 .079-.119.131-.265.222-.619.699-1.473 1.158-2.075.26-.339.932-1.025 1.286-1.311A8.11 8.11 0 0 1 12 4.001c1.747 0 3.487.594 4.9 1.673.339.26 1.025.932 1.311 1.286.509.629 1.03 1.535 1.273 2.213.052.147.118.267.146.267.073 0 1.783-.563 1.824-.601.019-.017-.051-.244-.155-.505a10.015 10.015 0 0 0-6.819-6.019c-.728-.19-1.403-.277-2.28-.293a14.898 14.898 0 0 0-.92.001m0 4.02a5.938 5.938 0 0 0-2.042.643 6.046 6.046 0 0 0-2.112 1.818c-.243.341-.736 1.28-.788 1.502l-.024.105.926.309c.51.17.94.293.957.274.016-.018.071-.133.121-.254.482-1.161 1.549-2.047 2.828-2.346.435-.102 1.275-.102 1.714.001 1.278.298 2.337 1.179 2.822 2.345.05.121.105.236.121.254.017.019.447-.104.957-.274 1.09-.363 1.019-.235.6-1.08-.658-1.328-1.671-2.282-3.053-2.876-.874-.375-2.072-.542-3.027-.421M11 12.5V14H8.427c-2.904 0-2.821-.008-3.128.299C4.987 14.61 5 14.456 5 18s-.013 3.39.299 3.701c.322.322-.202.299 6.701.299s6.379.023 6.701-.299c.312-.311.299-.157.299-3.701s.013-3.39-.299-3.701c-.307-.307-.224-.299-3.128-.299H13v-3h-2v1.5m6 5.5v2H7v-4h10v2" fill-rule="evenodd"/></svg>