<svg xmlns="http://www.w3.org/2000/svg" viewBox="0 0 24 24" stroke="currentColor" stroke-width="2" stroke-linecap="round" stroke-linejoin="round" class="feather feather-search"><path d="M10.1 2.045c-3.05.288-5.812 2.217-7.183 5.015a8.988 8.988 0 0 0 1.724 10.299c1.348 1.348 3.011 2.196 4.959 2.53.674.115 2.033.123 2.72.016a10.438 10.438 0 0 0 1.7-.425c.749-.262 1.875-.873 2.414-1.31l.173-.141 1.927 1.92c1.733 1.729 1.946 1.927 2.123 1.986.389.129.766.044 1.044-.234s.363-.655.234-1.044c-.059-.177-.257-.39-1.986-2.123l-1.92-1.927.141-.173c.447-.552 1.045-1.661 1.322-2.454.169-.486.318-1.091.414-1.68.1-.614.1-1.986 0-2.6-.164-1.008-.399-1.76-.826-2.64-1.64-3.382-5.203-5.372-8.98-5.015m1.64 1.997c2.449.28 4.51 1.737 5.562 3.931a6.974 6.974 0 0 1-1.802 8.38 6.976 6.976 0 0 1-8.38.464c-3.169-2.11-4.066-6.394-2.01-9.597 1.42-2.212 4.05-3.473 6.63-3.178" fill-rule="evenodd" stroke="none"/></svg>