<svg xmlns="http://www.w3.org/2000/svg" viewBox="0 0 24 24"><path d="M11.472 5.503c-7.267 2.419-9.698 3.244-9.79 3.321-.15.127-.158.265-.021.386.056.05 2.162.914 4.71 1.933l4.609 1.843 2.32 4.625c1.276 2.543 2.364 4.67 2.417 4.727.132.139.289.134.412-.012.076-.09.693-2.204 2.869-9.819C22.011 1.96 21.853 2.571 21.62 2.37c-.078-.067-.153-.089-.292-.087-.138.001-2.785.867-9.856 3.22m5.822 5.687c-.955 3.338-1.75 6.124-1.768 6.19-.03.109-.168-.15-1.555-2.92l-1.521-3.04-2.802-1.12c-1.541-.616-2.796-1.125-2.79-1.132.019-.019 12.078-4.041 12.126-4.045.025-.002-.736 2.728-1.69 6.067" fill-rule="evenodd"/></svg>