<svg xmlns="http://www.w3.org/2000/svg" viewBox="0 0 24 24"><path d="M3.657 1.043a2.967 2.967 0 0 0-1.76.854c-.494.493-.773 1.084-.856 1.813-.052.455-.052 4.125 0 4.58.083.729.362 1.32.856 1.813.493.494 1.084.773 1.813.856.478.055 16.102.055 16.58 0 .729-.083 1.32-.362 1.813-.856.494-.493.773-1.084.856-1.813.052-.455.052-4.125 0-4.58-.083-.729-.362-1.32-.856-1.813-.493-.494-1.084-.773-1.813-.856-.427-.049-16.213-.047-16.633.002m16.72 2.013c.194.081.446.323.541.519.08.166.082.231.082 2.425 0 2.203-.002 2.259-.083 2.427-.103.213-.399.479-.592.532-.095.027-2.973.041-8.362.041-8.214 0-8.218 0-8.388-.082a1.265 1.265 0 0 1-.519-.541c-.083-.199-.083-4.555 0-4.754.08-.192.32-.443.516-.54L3.74 3h8.251c6.99 0 8.272.009 8.386.056M5.789 5.042a.91.91 0 0 0-.517.31.97.97 0 0 0 .063 1.36.99.99 0 0 0 1.568-.299c.101-.207.101-.619 0-.826-.202-.413-.686-.65-1.114-.545m-2.132 8.001a2.967 2.967 0 0 0-1.76.854c-.494.493-.773 1.084-.856 1.813-.052.455-.052 4.125 0 4.58.083.729.362 1.32.856 1.813.493.494 1.084.773 1.813.856.478.055 16.102.055 16.58 0 .729-.083 1.32-.362 1.813-.856.494-.493.773-1.084.856-1.813.052-.455.052-4.125 0-4.58-.083-.729-.362-1.32-.856-1.813-.493-.494-1.084-.773-1.813-.856-.427-.049-16.213-.047-16.633.002m16.72 2.013c.194.081.446.323.541.519.08.166.082.231.082 2.425 0 2.203-.002 2.259-.083 2.427-.103.213-.399.479-.592.532-.095.027-2.973.041-8.362.041-8.214 0-8.218 0-8.388-.082a1.265 1.265 0 0 1-.519-.541c-.083-.199-.083-4.555 0-4.754.08-.192.32-.443.516-.54L3.74 15h8.251c6.99 0 8.272.009 8.386.056M5.789 17.042a.91.91 0 0 0-.517.31.97.97 0 0 0 .063 1.36.99.99 0 0 0 1.568-.299c.101-.207.101-.619 0-.826-.202-.413-.686-.65-1.114-.545" fill-rule="evenodd"/></svg>