<svg xmlns="http://www.w3.org/2000/svg" viewBox="0 0 24 24" stroke="currentColor" stroke-width="2" stroke-linecap="round" stroke-linejoin="round" class="feather feather-settings"><path d="M11.62.025c-.408.08-.533.114-.75.202-.706.287-1.342.91-1.62 1.588-.158.385-.21.615-.234 1.045-.013.22-.04.456-.061.524-.075.247-.362.414-.715.415-.207.001-.31-.056-.68-.374a3.209 3.209 0 0 0-1.239-.631c-.283-.07-.417-.081-.82-.064-.84.036-1.388.277-1.981.87-.593.593-.834 1.141-.87 1.981-.017.403-.006.537.064.82.11.44.351.913.631 1.239.319.371.375.472.375.685a.738.738 0 0 1-.257.587c-.149.131-.222.15-.703.187C1.473 9.197.404 10.113.077 11.4c-.073.285-.073 1.074-.001 1.357A3.076 3.076 0 0 0 2.313 15c.095.025.379.058.631.075.502.034.595.073.766.325.064.094.09.19.09.336 0 .23-.027.28-.387.72a3.075 3.075 0 0 0-.618 1.223c-.116.463-.092 1.154.056 1.612a3.115 3.115 0 0 0 1.938 1.938 3.346 3.346 0 0 0 1.612.057 3.204 3.204 0 0 0 1.259-.648c.35-.302.466-.365.674-.364.315.001.623.203.7.46.022.069.05.279.063.466a2.962 2.962 0 0 0 1.343 2.299c.476.305.893.446 1.44.486 1.42.104 2.725-.839 3.106-2.245.03-.11.064-.362.076-.56.032-.524.05-.604.164-.74a.642.642 0 0 1 .514-.247c.214 0 .328.061.68.365.344.296.811.536 1.259.648a3.346 3.346 0 0 0 1.612-.057 3.115 3.115 0 0 0 1.938-1.938 3.346 3.346 0 0 0 .057-1.612 3.204 3.204 0 0 0-.648-1.259 3.533 3.533 0 0 1-.303-.394.733.733 0 0 1-.002-.572c.134-.257.346-.374.68-.374 1.359-.002 2.569-.967 2.911-2.32.072-.285.072-1.075 0-1.357a3.06 3.06 0 0 0-2.184-2.229 3.75 3.75 0 0 0-.6-.078 3.439 3.439 0 0 1-.523-.061c-.247-.074-.429-.382-.424-.717.003-.195.068-.314.365-.658.296-.344.536-.811.648-1.259.07-.283.081-.417.064-.82-.036-.833-.294-1.416-.887-2.001-.586-.578-1.141-.818-1.966-.85-.401-.016-.54-.005-.82.065-.438.109-.912.35-1.237.63-.379.326-.47.375-.704.375a.547.547 0 0 1-.336-.09c-.245-.167-.289-.266-.325-.731a5.19 5.19 0 0 0-.076-.592C14.616 1.126 13.653.232 12.48.043c-.252-.041-.697-.05-.86-.018m.72 2.041c.259.089.511.343.591.598.034.108.071.359.082.558a2.683 2.683 0 0 0 1.826 2.386c.359.117 1.088.145 1.444.056a3.045 3.045 0 0 0 1.175-.627c.348-.31.53-.395.842-.395a.95.95 0 0 1 .978.978c0 .312-.085.494-.395.842a3.045 3.045 0 0 0-.627 1.175c-.093.374-.06 1.077.071 1.509.324 1.067 1.266 1.786 2.413 1.841.52.026.749.1.96.311a.983.983 0 0 1 0 1.404c-.206.206-.436.284-.922.311a2.683 2.683 0 0 0-2.386 1.826c-.117.359-.145 1.088-.056 1.444.099.394.349.863.627 1.175.31.348.395.53.395.842a.95.95 0 0 1-.978.978c-.312 0-.494-.085-.842-.395a3.045 3.045 0 0 0-1.175-.627c-.356-.089-1.085-.061-1.443.057-1.056.346-1.773 1.298-1.827 2.427-.026.52-.1.749-.311.96-.649.649-1.702.173-1.702-.769 0-.352-.113-.808-.291-1.171-.323-.66-.979-1.184-1.749-1.397-.365-.101-.989-.112-1.342-.023-.378.096-.85.351-1.156.623-.348.31-.53.395-.842.395a.95.95 0 0 1-.978-.978c0-.312.085-.494.395-.842.278-.312.528-.781.627-1.175.047-.189.059-.378.046-.72-.02-.538-.106-.85-.34-1.237-.493-.815-1.245-1.266-2.19-1.313-.521-.026-.749-.1-.961-.312a.998.998 0 0 1 .371-1.644c.082-.029.254-.054.382-.055 1.204-.009 2.251-.836 2.585-2.042.101-.365.112-.989.023-1.342a3.075 3.075 0 0 0-.623-1.156c-.306-.343-.395-.53-.396-.833-.002-.57.413-.99.977-.988.315.001.497.086.844.396.312.278.781.528 1.175.627.59.147 1.547.005 2.062-.307.805-.487 1.231-1.229 1.298-2.261.028-.425.046-.514.138-.672.251-.427.728-.6 1.205-.438m-1.03 5.997a3.918 3.918 0 0 0-2.131 1.116 3.903 3.903 0 0 0-1.165 3.001c.096 1.833 1.332 3.307 3.126 3.725.464.109 1.319.102 1.78-.014a4.03 4.03 0 0 0 2.971-2.971c.116-.461.123-1.316.014-1.78-.49-2.102-2.51-3.454-4.595-3.077m1.098 1.981C13.31 10.232 14 11.08 14 12c0 1.08-.92 2-2 2s-2-.92-2-2c0-.898.657-1.731 1.534-1.943.263-.064.604-.069.874-.013" fill-rule="evenodd" stroke="none"/></svg>