<svg xmlns="http://www.w3.org/2000/svg" viewBox="0 0 24 24" stroke="currentColor" stroke-width="2" stroke-linecap="round" stroke-linejoin="round" class="feather feather-shopping-cart"><path d="M.643.069C.291.193 0 .614 0 1c0 .242.119.521.299.701C.593 1.995.628 2 2.517 2H4.18l1.255 6.29c.736 3.686 1.304 6.439 1.372 6.65.303.929 1.042 1.637 2.033 1.946l.3.094h5.38c5.797 0 5.516.01 6.054-.209a3.09 3.09 0 0 0 1.678-1.753C22.352 14.736 24 6.21 24 5.973c0-.216-.127-.502-.299-.674-.325-.325.445-.299-8.719-.299H6.819l-.416-2.09C6.174 1.761 5.96.74 5.927.643 5.848.407 5.586.15 5.34.066 5.168.008 4.897 0 2.983.003 1.132.006.795.015.643.069M21.776 7.07c-.008.039-.322 1.68-.696 3.647-.456 2.398-.708 3.635-.764 3.751a1.043 1.043 0 0 1-.227.291c-.309.254-.005.241-5.549.241-5.544 0-5.24.013-5.549-.241a1.028 1.028 0 0 1-.228-.293c-.055-.113-.338-1.442-.804-3.769a383.587 383.587 0 0 1-.719-3.646C7.24 7.01 8.674 7 14.516 7c6.909 0 7.276.004 7.26.07M8.534 19.057C7.657 19.269 7 20.102 7 21c0 1.08.92 2 2 2s2-.92 2-2c0-1.096-.934-2.013-2.032-1.997a2.342 2.342 0 0 0-.434.054m11 0C18.657 19.269 18 20.102 18 21c0 1.08.92 2 2 2s2-.92 2-2c0-1.096-.934-2.013-2.032-1.997a2.342 2.342 0 0 0-.434.054" fill-rule="evenodd" stroke="none"/></svg>