<svg xmlns="http://www.w3.org/2000/svg" viewBox="0 0 24 24"><path d="M7.464.855A7.16 7.16 0 0 0 3.2 2.687C1.902 3.88 1.125 5.361.89 7.093a8.869 8.869 0 0 0 0 1.814c.373 2.746 2.22 4.997 4.829 5.885a7.214 7.214 0 0 0 4.562-.001c1.979-.669 3.604-2.204 4.367-4.124a7.175 7.175 0 0 0-.065-5.494c-.516-1.222-1.478-2.378-2.599-3.125A7.122 7.122 0 0 0 7.464.855m1.197 1.013a6.302 6.302 0 0 1 3.192 1.317c.257.205.731.677.939.935a6.316 6.316 0 0 1 1.34 3.219c.036.332.036.99 0 1.322a6.187 6.187 0 0 1-1.815 3.732 5.96 5.96 0 0 1-1.67 1.173 6.172 6.172 0 0 1-5.274.01c-1.956-.937-3.273-2.783-3.505-4.915a8.105 8.105 0 0 1 0-1.322 6.297 6.297 0 0 1 1.317-3.192c.208-.26.674-.729.932-.937a6.346 6.346 0 0 1 3.176-1.339 9.323 9.323 0 0 1 1.368-.003M5.846 5.523c-.125.036-.29.212-.327.347a.502.502 0 0 0 .609.611A.525.525 0 0 0 6.505 6a.529.529 0 0 0-.366-.479.446.446 0 0 0-.293.002m4 0c-.125.036-.29.212-.327.347a.502.502 0 0 0 .609.611.525.525 0 0 0 .377-.481.529.529 0 0 0-.366-.479.446.446 0 0 0-.293.002M5.179 8.857c-.124.036-.29.211-.326.345a.587.587 0 0 0-.012.216c.053.317.823 1.005 1.492 1.335.328.162.489.223.793.3 1.171.295 2.367-.008 3.387-.858.251-.21.536-.517.598-.646a.498.498 0 0 0-.578-.695c-.093.025-.161.078-.345.271-.435.458-.942.781-1.481.945-.223.068-.275.073-.707.073-.432 0-.484-.005-.704-.072-.551-.169-.949-.416-1.41-.876-.368-.367-.459-.41-.707-.338" fill-rule="evenodd"/></svg>