<svg xmlns="http://www.w3.org/2000/svg" viewBox="0 0 24 24"><path d="M9.88 3.6C8.116 6.186 7.761 6.685 7.66 6.717c-.066.022-1.668.492-3.56 1.045C2.208 8.316.648 8.78.633 8.794c-.015.014.999 1.354 2.252 2.977l2.278 2.951-.108 3.719c-.059 2.046-.099 3.728-.089 3.738.01.01 1.598-.546 3.528-1.235l3.51-1.254 3.507 1.252c1.929.69 3.515 1.246 3.524 1.237.009-.01-.032-1.691-.091-3.737l-.107-3.72 2.278-2.951c1.253-1.623 2.266-2.963 2.252-2.977-.015-.015-1.628-.496-3.584-1.07-1.957-.574-3.568-1.058-3.58-1.077A784.142 784.142 0 0 0 12 .522c-.011 0-.965 1.385-2.12 3.078m3.62 2.64c.805 1.177 1.493 2.153 1.531 2.17.038.016 1.149.345 2.469.73 1.32.386 2.43.714 2.467.731.054.023-.235.42-1.54 2.11l-1.607 2.081.074 2.612c.04 1.437.065 2.621.055 2.631-.011.01-1.127-.378-2.482-.861l-2.464-.88-2.465.881c-1.356.484-2.475.872-2.486.86-.011-.011.013-1.195.054-2.632l.074-2.611-1.607-2.081A127.644 127.644 0 0 1 3.977 9.89a200.37 200.37 0 0 1 2.267-.672l2.517-.738.261-.078 1.477-2.162c.812-1.189 1.491-2.157 1.508-2.151.017.006.689.974 1.493 2.151m-5.485 6.07c.181 2.156 2.03 3.788 4.165 3.676a3.986 3.986 0 0 0 3.806-3.686l.026-.3h-2.001l-.025.212a2.007 2.007 0 0 1-1.524 1.727c-.658.169-1.349-.031-1.865-.539a1.876 1.876 0 0 1-.567-1.098L9.982 12H7.988l.027.31" fill-rule="evenodd"/></svg>