<svg xmlns="http://www.w3.org/2000/svg" viewBox="0 0 24 24"><path d="M6.667 1.667V2.5h6.666V.833H6.667v.834M9.45 3.356a7.603 7.603 0 0 0-3.9 1.441l-.232.17-.601-.6-.601-.6-.591.592-.592.592.6.598c.519.519.593.606.558.654-.885 1.202-1.381 2.422-1.542 3.79-.262 2.24.54 4.529 2.152 6.14 1.131 1.131 2.568 1.857 4.202 2.124.484.079 1.71.079 2.194 0 1.624-.265 3.041-.977 4.179-2.101 1.622-1.602 2.438-3.914 2.175-6.163-.161-1.368-.657-2.588-1.542-3.79-.035-.048.039-.135.558-.654l.6-.598-.592-.592-.591-.592-.603.602-.604.603-.217-.164c-.818-.62-1.95-1.122-2.977-1.32-.684-.132-1.448-.182-2.033-.132m1.483 1.723a5.835 5.835 0 0 1 4.515 3.678c.257.666.365 1.281.365 2.076 0 .792-.108 1.411-.361 2.068-1.074 2.78-4.012 4.31-6.883 3.584-2.277-.575-3.963-2.441-4.34-4.802-.055-.343-.055-1.356 0-1.7.34-2.124 1.716-3.833 3.704-4.601.458-.177.92-.282 1.6-.362.221-.026 1.117.012 1.4.059M8.747 8.958 6.678 11.65l1.244.009 1.244.008.009 1.864.008 1.864 2.069-2.689 2.069-2.689-1.244-.009-1.243-.009-.009-1.866-.008-1.867-2.07 2.692" fill-rule="evenodd"/></svg>