<svg xmlns="http://www.w3.org/2000/svg" viewBox="0 0 24 24"><path d="M9.4 1.687c-1.535.138-2.809.579-4.033 1.397-2.008 1.342-3.284 3.398-3.64 5.866-.057.394-.057 1.706 0 2.1.225 1.561.785 2.89 1.734 4.117.281.363 1.007 1.088 1.372 1.371 2.415 1.868 5.538 2.311 8.306 1.178 1.846-.756 3.413-2.197 4.293-3.947a8.33 8.33 0 0 0-2.665-10.597c-1.069-.749-2.258-1.218-3.6-1.421-.338-.051-1.46-.092-1.767-.064m1.615 1.729c2.881.445 5.122 2.696 5.575 5.601.078.498.078 1.468 0 1.966a6.64 6.64 0 0 1-1.756 3.596 6.44 6.44 0 0 1-1.917 1.405 6.306 6.306 0 0 1-2.684.672 6.593 6.593 0 0 1-5.019-2.03 6.593 6.593 0 0 1-1.804-3.643c-.078-.498-.078-1.468 0-1.966A6.682 6.682 0 0 1 7.6 3.783a7.32 7.32 0 0 1 1.917-.43c.199-.028 1.174.013 1.498.063M9.167 8.75v2.917h5V10h-3.334V5.833H9.167V8.75" fill-rule="evenodd"/></svg>