<svg xmlns="http://www.w3.org/2000/svg" viewBox="0 0 24 24"><path d="M2.22 2.552a.844.844 0 0 0-.444.374l-.093.157-.008 6.849c-.01 7.692-.031 7.047.24 7.318.273.273-.471.25 8.085.25 8.554 0 7.812.023 8.084-.249.271-.271.249.369.249-7.251s.022-6.98-.249-7.251c-.272-.272.472-.249-8.098-.247-6.54.002-7.655.01-7.766.05m14.447 4.531V10h-4.158l-.021.211c-.216 2.109-2.743 3.046-4.231 1.569a2.526 2.526 0 0 1-.743-1.553L7.491 10H3.333V4.167h13.334v2.916M6.275 11.864c.215.463.68 1.032 1.143 1.401.479.382.996.631 1.647.794.314.079.414.089.935.089.521 0 .621-.01.935-.089a4.137 4.137 0 0 0 1.589-.749c.474-.358.98-.969 1.199-1.445l.091-.198H16.667v4.166H3.333v-4.166h2.85l.092.197" fill-rule="evenodd"/></svg>