<svg xmlns="http://www.w3.org/2000/svg" viewBox="0 0 24 24"><path d="M4.643 3.069c-.241.085-.496.349-.58.601-.061.185-.066.469-.052 3.157.014 2.887.016 2.962.104 3.353.411 1.83 1.513 3.299 3.086 4.117.6.312.917.424 1.685.598l.105.024.02 1.171c.022 1.277.043 1.434.289 2.176a5.299 5.299 0 0 0 1.319 2.115c.786.787 1.721 1.285 2.861 1.526.475.1 1.565.1 2.04 0 1.14-.241 2.075-.739 2.861-1.526a5.307 5.307 0 0 0 1.302-2.063c.071-.208.149-.398.173-.422.024-.024.134-.075.244-.114.535-.191 1.173-.739 1.49-1.282a2.976 2.976 0 0 0-.475-3.615 2.988 2.988 0 0 0-4.602.446 3.004 3.004 0 0 0-.012 3.321c.214.319.607.695.939.899l.314.194c.008.005-.031.108-.085.227a3.542 3.542 0 0 1-2.289 1.914c-.259.07-.43.087-.9.087-.515 0-.619-.011-.932-.107-1.204-.366-2.048-1.21-2.414-2.414-.103-.337-.108-.4-.125-1.44l-.017-1.089.114-.026c.787-.179 1.09-.287 1.693-.6 1.572-.817 2.676-2.289 3.086-4.117.088-.391.09-.466.104-3.353.017-3.342.028-3.212-.287-3.527-.294-.294-.339-.3-2.129-.3H12v2h2.004l-.014 2.31c-.014 2.209-.018 2.324-.1 2.63-.476 1.78-1.904 2.952-3.71 3.046a3.91 3.91 0 0 1-3.001-1.165 3.964 3.964 0 0 1-1.052-1.819l-.104-.382-.014-2.31L5.996 5H8V3l-1.59.003c-1.332.003-1.619.013-1.767.066M19.34 14.066c.369.126.66.538.66.934 0 .527-.473 1-1 1-.242 0-.521-.119-.701-.299a.984.984 0 0 1 .001-1.403.977.977 0 0 1 1.04-.232" fill-rule="evenodd"/></svg>