<svg xmlns="http://www.w3.org/2000/svg" viewBox="0 0 24 24"><path d="M2.582 4.304a1.858 1.858 0 0 0-1.101.835c-.213.372-.24.589-.24 1.961 0 .682.018 1.353.04 1.491.063.389.205.662.489.946.291.291.447.38.89.503.444.124.677.251.964.527.405.389.616.88.616 1.433 0 .536-.184.986-.567 1.384-.276.288-.566.453-1.013.577-.442.122-.599.211-.89.502a1.592 1.592 0 0 0-.489.946c-.022.138-.041.805-.041 1.483 0 1.421.029 1.636.276 2.016.27.416.639.685 1.085.79.228.054 1.338.061 9.387.061 6.512.001 9.189-.012 9.34-.043a1.795 1.795 0 0 0 1.387-1.388c.057-.27.06-2.574.004-2.919a1.592 1.592 0 0 0-.489-.946c-.291-.291-.447-.38-.89-.503-.444-.124-.677-.251-.964-.527a1.967 1.967 0 0 1 0-2.866c.287-.276.52-.403.964-.527.443-.123.599-.212.89-.503.284-.284.426-.557.489-.946.022-.138.041-.805.041-1.483 0-1.422-.029-1.636-.276-2.016-.283-.435-.622-.681-1.093-.792-.373-.087-18.445-.084-18.809.004M8 12v5.76H3.239l.01-.945.011-.944.22-.07a3.84 3.84 0 0 0 1.602-.996c1.295-1.307 1.528-3.293.574-4.892a4.222 4.222 0 0 0-.556-.696c-.489-.5-1.001-.822-1.62-1.018l-.22-.07-.011-.944-.01-.945H8V12m12.751-4.815-.011.944-.23.071c-1.037.321-2.006 1.207-2.428 2.221-.249.6-.297.852-.297 1.579s.048.979.297 1.579c.422 1.014 1.391 1.9 2.428 2.221l.23.071.011.944.01.945H10V6.24h10.761l-.01.945" fill-rule="evenodd"/></svg>