<svg xmlns="http://www.w3.org/2000/svg" viewBox="0 0 24 24"><path d="M11.26 2.023a37.61 37.61 0 0 1-.5.06c-1.74.198-3.477.924-4.96 2.071-.439.34-1.308 1.21-1.649 1.651-1.109 1.432-1.778 2.999-2.059 4.823-.092.6-.092 2.144 0 2.744.448 2.909 1.971 5.336 4.348 6.928 1.321.884 2.676 1.393 4.34 1.629.54.076 2.01.064 2.6-.023a10.107 10.107 0 0 0 4.14-1.579c2.467-1.652 3.984-4.097 4.408-7.107.067-.474.066-1.972-.002-2.46-.261-1.875-.986-3.586-2.119-5A10.032 10.032 0 0 0 13.4 2.099c-.432-.063-1.869-.113-2.14-.076m1.506 2.018a7.953 7.953 0 0 1 4.788 2.215 7.972 7.972 0 0 1 1.625 9.252 7.992 7.992 0 0 1-6.413 4.451 8.05 8.05 0 0 1-4.958-1.151C4.301 16.628 3.009 12.175 4.817 8.5a7.347 7.347 0 0 1 1.421-2.034c1.712-1.773 4.11-2.664 6.528-2.425M11 10.5V14h6v-2h-4V7h-2v3.5" fill-rule="evenodd"/></svg>