<svg xmlns="http://www.w3.org/2000/svg" viewBox="0 0 24 24"><path d="M11.26 2.023a37.61 37.61 0 0 1-.5.06c-1.216.138-2.578.588-3.669 1.211A10.025 10.025 0 0 0 2.427 9.12c-.296.982-.406 1.76-.406 2.88 0 1.12.11 1.898.406 2.88A10.005 10.005 0 0 0 8.9 21.501c1.053.348 1.909.479 3.12.477 1.635-.003 2.954-.304 4.36-.998 3.058-1.507 5.069-4.314 5.546-7.74.069-.496.069-1.984 0-2.48-.232-1.667-.811-3.165-1.732-4.48A10.009 10.009 0 0 0 13.5 2.115c-.493-.076-1.931-.135-2.24-.092m1.506 2.018A8.163 8.163 0 0 1 16.9 5.674c.36.275 1.033.942 1.339 1.326a8.015 8.015 0 0 1 1.72 5.766 7.941 7.941 0 0 1-2.405 4.975c-.668.648-1.207 1.026-2.054 1.442-3.108 1.529-6.835.865-9.262-1.649A7.347 7.347 0 0 1 4.817 15.5c-1.336-2.717-1.004-5.965.858-8.4.251-.329.843-.937 1.205-1.24a8.037 8.037 0 0 1 5.886-1.819m.274 5.499L10.58 12l.71.71.71.71 2.46-2.46c1.353-1.353 2.46-2.478 2.46-2.5 0-.053-1.328-1.38-1.381-1.38-.021 0-1.146 1.107-2.499 2.46" fill-rule="evenodd"/></svg>