<svg xmlns="http://www.w3.org/2000/svg" viewBox="0 0 24 24"><path d="m7.507 1.349-.334.04c-1.16.132-2.318.615-3.306 1.381a8.595 8.595 0 0 0-1.1 1.1 6.79 6.79 0 0 0-1.372 3.215c-.062.401-.062 1.429 0 1.83.298 1.939 1.314 3.557 2.898 4.618.881.59 1.784.929 2.894 1.086.36.051 1.34.043 1.733-.015a6.723 6.723 0 0 0 2.76-1.053c1.645-1.101 2.656-2.731 2.939-4.738.045-.316.044-1.314-.002-1.64a6.785 6.785 0 0 0-1.413-3.333 6.684 6.684 0 0 0-4.271-2.441c-.288-.041-1.246-.075-1.426-.05m1.16 4.984V8h2.666v1.333h-4V4.667h1.334v1.666" fill-rule="evenodd"/></svg>