<svg xmlns="http://www.w3.org/2000/svg" viewBox="0 0 24 24"><path d="m9.62 1.024-.29.059c-.88.178-1.753.913-2.093 1.762-.18.448-.205.599-.226 1.385l-.02.77H4.922c-2.341 0-2.322-.002-2.623.299a.984.984 0 0 0 0 1.402c.247.247.442.299 1.127.299h.572l.012 6.77c.013 7.375-.004 6.833.231 7.39a3.1 3.1 0 0 0 2.079 1.764c.329.084 11.033.083 11.36 0 1.098-.282 1.873-1.04 2.235-2.184.056-.178.064-.933.075-6.97L20.002 7h.572c.685 0 .88-.052 1.127-.299a.984.984 0 0 0 0-1.402C21.4 4.998 21.419 5 19.078 5h-2.069l-.02-.77c-.026-.959-.109-1.276-.49-1.87-.401-.625-.942-1.011-1.799-1.285-.121-.039-.746-.053-2.58-.059a97.85 97.85 0 0 0-2.5.008m4.72 2.042c.253.087.507.341.594.594.049.145.066.339.066.767V5H9v-.573c0-.687.052-.881.3-1.129.296-.296.25-.291 2.683-.295 1.914-.003 2.185.005 2.357.063M18 13.573c0 7.381.024 6.805-.299 7.128-.32.32.082.299-5.701.299-5.783 0-5.381.021-5.701-.299-.323-.323-.299.253-.299-7.128V7h12v6.573m-8.357-3.504a1.118 1.118 0 0 0-.343.229c-.313.313-.3.157-.3 3.702 0 3.544-.013 3.39.299 3.701.18.18.459.299.701.299.242 0 .521-.119.701-.299.312-.311.299-.157.299-3.701s.013-3.39-.299-3.701a.998.998 0 0 0-1.058-.23m4 0a1.118 1.118 0 0 0-.343.229c-.313.313-.3.157-.3 3.702 0 3.544-.013 3.39.299 3.701.18.18.459.299.701.299.242 0 .521-.119.701-.299.312-.311.299-.157.299-3.701s.013-3.39-.299-3.701a.998.998 0 0 0-1.058-.23" fill-rule="evenodd"/></svg>