<svg xmlns="http://www.w3.org/2000/svg"  viewBox="0 0 24 24"><path d="M1.643 5.069a1.118 1.118 0 0 0-.343.229c-.323.323-.3-.193-.3 6.629V18h1.021l.09.35a3.475 3.475 0 0 0 1.935 2.326c.525.244.807.302 1.454.302.647 0 .929-.058 1.454-.302a3.475 3.475 0 0 0 1.935-2.326l.09-.35h5.042l.09.35a3.475 3.475 0 0 0 1.935 2.326c.525.244.807.302 1.454.302.647 0 .929-.058 1.454-.302a3.475 3.475 0 0 0 1.935-2.326l.09-.35H23v-5.943l-1.492-2.018-1.492-2.019-1.508-.01L17 7.999V6.927c0-1.235-.021-1.35-.299-1.628-.324-.324.325-.299-7.718-.296-6.381.003-7.182.01-7.34.066M15 11.034v4.034l-.085.076c-.116.104-.411.523-.499.706l-.071.15h-2.85c-2.765 0-2.85-.002-2.874-.076-.049-.155-.357-.587-.595-.836a3.49 3.49 0 0 0-1.574-.955c-.315-.095-.415-.107-.952-.107-.537 0-.637.012-.952.107-.552.169-1.009.421-1.378.761L3 15.05V7h12v4.034m4.996.323c.873 1.179 1.004 1.375 1.004 1.5V13h-4v-3h1.992l1.004 1.357M6.11 16.139c.305.139.615.45.756.757.096.209.112.296.113.604.001.322-.013.388-.124.62a1.522 1.522 0 0 1-.735.735c-.232.111-.299.125-.62.124-.309 0-.394-.016-.6-.112a1.675 1.675 0 0 1-.766-.763c-.096-.209-.112-.295-.112-.604-.001-.31.015-.393.111-.6a1.618 1.618 0 0 1 1.017-.859c.257-.065.702-.019.96.098m12.013.008c.327.153.576.403.733.733.11.231.124.3.124.62 0 .321-.014.388-.125.62a1.522 1.522 0 0 1-.735.735c-.232.111-.299.125-.62.124-.309 0-.394-.016-.6-.112a1.675 1.675 0 0 1-.766-.763c-.096-.209-.112-.296-.113-.604-.001-.32.013-.389.123-.62.363-.763 1.231-1.085 1.979-.733" fill-rule="evenodd"/></svg>