<svg xmlns="http://www.w3.org/2000/svg"  viewBox="0 0 24 24"><path d="M11.42 1.026a6.246 6.246 0 0 0-2.176.655c-1.647.851-2.787 2.392-3.151 4.259-.097.499-.097 1.621 0 2.12.115.591.296 1.116.569 1.653.849 1.674 2.395 2.828 4.278 3.194.514.099 1.582.099 2.12-.002 2.449-.458 4.298-2.276 4.825-4.745.119-.557.13-1.67.022-2.22-.372-1.898-1.536-3.454-3.216-4.298a5.67 5.67 0 0 0-1.891-.583c-.382-.052-1.079-.069-1.38-.033m1.52 2.09c1.5.375 2.612 1.509 2.965 3.024.054.229.075.474.075.86 0 .601-.067.973-.267 1.477-.857 2.163-3.415 3.142-5.486 2.1a3.66 3.66 0 0 1-1.048-.757 3.924 3.924 0 0 1-1.05-1.818C8.04 7.67 8.026 7.539 8.026 7c0-.539.014-.67.103-1.002a3.924 3.924 0 0 1 1.05-1.818c.614-.611 1.277-.956 2.159-1.124.387-.074 1.187-.045 1.602.06m-1.78 10.929a8.207 8.207 0 0 0-4.08 1.648c-.385.301-1.01.92-1.318 1.307-.787.986-1.363 2.212-1.596 3.4-.092.466-.166 1.09-.166 1.398V22h1.988l.027-.384c.06-.85.276-1.616.669-2.377.846-1.637 2.396-2.783 4.256-3.146.259-.051.556-.07 1.06-.07 1.063 0 1.794.172 2.713.639a5.992 5.992 0 0 1 3.272 4.948l.027.39H20v-.176c0-.096-.018-.362-.041-.59-.243-2.449-1.565-4.613-3.648-5.97-1.462-.953-3.361-1.402-5.151-1.219" fill-rule="evenodd"/></svg>