<svg xmlns="http://www.w3.org/2000/svg" viewBox="0 0 24 24"><path d="M11.18 1.055c-1.409.234-2.56.831-3.505 1.816A6.035 6.035 0 0 0 6.12 5.839c-.114.562-.114 1.76 0 2.322a5.95 5.95 0 0 0 1.658 3.062c.72.72 1.436 1.162 2.386 1.473.66.216 1.002.266 1.8.267 1.167.001 1.845-.159 2.836-.67 1.071-.551 2.04-1.554 2.58-2.668a6.716 6.716 0 0 0 .52-1.565c.097-.551.088-1.69-.018-2.21-.243-1.193-.784-2.195-1.66-3.074-.905-.908-1.96-1.465-3.181-1.678-.489-.086-1.468-.108-1.861-.043m.04 12.987c-.819.064-1.895.375-2.74.79a7.95 7.95 0 0 0-4.057 4.651c-.248.749-.423 1.7-.423 2.305V22h10v-7.753l-.21-.046c-.686-.148-1.821-.219-2.57-.159M18 15.5V17h-3v2h3v3h2v-3h3v-2h-3v-3h-2v1.5" fill-rule="evenodd"/></svg>