<svg xmlns="http://www.w3.org/2000/svg" viewBox="0 0 24 24"><path d="M11.42 1.026a6.246 6.246 0 0 0-2.176.655c-1.647.851-2.787 2.392-3.151 4.259-.097.499-.097 1.621 0 2.12.115.591.296 1.116.569 1.653.849 1.674 2.395 2.828 4.278 3.194.514.099 1.582.099 2.12-.002 2.449-.458 4.298-2.276 4.825-4.745.119-.557.13-1.67.022-2.22-.372-1.898-1.536-3.454-3.216-4.298a5.67 5.67 0 0 0-1.891-.583c-.382-.052-1.079-.069-1.38-.033m1.52 2.09c1.5.375 2.612 1.509 2.965 3.024.054.229.075.474.075.86 0 .601-.067.973-.267 1.477-.857 2.163-3.415 3.142-5.486 2.1a3.66 3.66 0 0 1-1.048-.757 3.924 3.924 0 0 1-1.05-1.818C8.04 7.67 8.026 7.539 8.026 7c0-.539.014-.67.103-1.002a3.924 3.924 0 0 1 1.05-1.818c.614-.611 1.277-.956 2.159-1.124.387-.074 1.187-.045 1.602.06m-1.82 10.926a8.276 8.276 0 0 0-4.16 1.747c-.354.286-1.027.972-1.286 1.311-.734.962-1.285 2.167-1.508 3.3-.092.466-.166 1.09-.166 1.398V22h1.988l.027-.38c.058-.832.244-1.51.625-2.28.592-1.198 1.485-2.098 2.66-2.68.599-.297.95-.42 1.54-.54a5.984 5.984 0 0 1 2.679.083c.253.064.466.117.471.117.005 0 .01-.466.01-1.036v-1.036l-.29-.063c-.16-.035-.407-.083-.55-.107-.348-.058-1.666-.082-2.04-.036m5.04 2.138-.699.7 1.059 1.06L17.579 19l-1.059 1.06-1.06 1.06.71.71.71.71 1.06-1.06L19 20.421l1.06 1.059 1.06 1.06.71-.71.71-.71-1.06-1.06L20.421 19l1.059-1.06 1.06-1.06-.71-.71-.71-.71-1.06 1.06L19 17.579l-1.05-1.049a39.702 39.702 0 0 0-1.071-1.05 18 18 0 0 0-.719.7" fill-rule="evenodd"/></svg>