<svg xmlns="http://www.w3.org/2000/svg" viewBox="0 0 24 24"><path d="M18.14 3.076a1.043 1.043 0 0 0-.767.882c-.039.323.047.561.377 1.053 1.275 1.896 1.584 4.117.871 6.254-.177.53-.5 1.169-.873 1.725-.197.294-.316.518-.349.653-.159.665.297 1.291.941 1.291.443-.001.618-.149 1.191-1.014a9.266 9.266 0 0 0 1.188-2.7c.2-.772.257-1.27.257-2.22 0-1.17-.131-1.97-.495-3.02-.365-1.051-1.315-2.613-1.712-2.816-.179-.091-.462-.131-.629-.088M7.53 5.083c-1.403.182-2.486 1.103-2.896 2.462-.121.401-.149 1.331-.054 1.761.147.666.4 1.166.821 1.625 1.343 1.466 3.825 1.484 5.163.039.436-.471.684-.942.84-1.596.073-.304.082-.439.066-.954-.016-.514-.035-.649-.129-.94-.313-.963-.9-1.653-1.76-2.065a3.563 3.563 0 0 0-2.051-.332m7.67.85c-.077.024-.232.135-.346.246-.386.375-.426.822-.137 1.538.086.214.185.527.22.695.126.61.059 1.178-.22 1.871-.194.481-.232.777-.14 1.093.193.664.969.955 1.441.54.264-.232.659-1.031.817-1.656.305-1.21.175-2.398-.388-3.54-.352-.714-.729-.952-1.247-.787m-8.94 7.125a5.215 5.215 0 0 0-2.084.823c-.405.271-1.024.89-1.295 1.295a5.1 5.1 0 0 0-.822 2.104c-.117.761-.056 1.126.24 1.421.32.32-.082.299 5.701.299 5.783 0 5.381.021 5.701-.299.296-.295.357-.66.24-1.421a4.552 4.552 0 0 0-.418-1.384c-.514-1.081-1.281-1.859-2.343-2.378-.921-.451-1.348-.519-3.22-.514-.894.003-1.493.022-1.7.054"/></svg>