<svg xmlns="http://www.w3.org/2000/svg" viewBox="0 0 24 24" stroke="currentColor" stroke-width="2" stroke-linecap="round" stroke-linejoin="round" class="feather feather-volume-2"><path d="M18.76 3.979c-.513.166-.795.73-.633 1.269.031.103.183.31.444.605.482.542.787.942 1.081 1.417a9.017 9.017 0 0 1 0 9.46c-.295.476-.599.875-1.082 1.419-.443.499-.513.649-.482 1.029a.985.985 0 0 0 .792.868c.185.039.258.035.457-.023.194-.057.288-.118.516-.336.929-.892 1.954-2.491 2.442-3.811 1.348-3.647.714-7.69-1.681-10.712-.423-.533-.932-1.046-1.124-1.132a1.072 1.072 0 0 0-.73-.053m-8.113.093c-.107.042-1.094.805-2.586 1.998L5.65 8H3.752c-2.151 0-2.155 0-2.453.299C.987 8.61 1 8.456 1 12s-.013 3.39.299 3.701c.298.299.302.299 2.453.299H5.65l2.385 1.909c1.312 1.05 2.454 1.944 2.539 1.986a.988.988 0 0 0 1.126-.193c.325-.325.3.323.3-7.702 0-8.023.025-7.377-.299-7.701a.984.984 0 0 0-1.054-.227M10 12v4.921l-1.749-1.4c-1.228-.983-1.802-1.418-1.927-1.46-.147-.051-.45-.061-1.751-.061H3v-4h1.573c1.301 0 1.604-.01 1.751-.061.125-.042.691-.473 1.917-1.457.956-.768 1.744-1.397 1.749-1.399.005-.002.01 2.211.01 4.917m5.087-4.416c-.342.17-.528.483-.526.885.001.3.091.492.38.814.458.51.762 1.07.948 1.75.068.249.085.427.087.947.003.578-.008.678-.105 1.028a4.16 4.16 0 0 1-.949 1.724c-.294.33-.362.482-.361.803.002.569.414.983.979.983.329 0 .528-.1.827-.416.753-.795 1.27-1.791 1.522-2.932.117-.529.126-1.727.017-2.269a6.21 6.21 0 0 0-1.41-2.881c-.346-.401-.592-.54-.955-.54a.894.894 0 0 0-.454.104" fill-rule="evenodd" stroke="none"/></svg>