<svg xmlns="http://www.w3.org/2000/svg" viewBox="0 0 24 24" stroke="currentColor" stroke-width="2" stroke-linecap="round" stroke-linejoin="round" class="feather feather-volume-x"><path d="M10.647 4.072c-.107.042-1.094.805-2.586 1.998L5.65 8H3.752c-2.151 0-2.155 0-2.453.299C.987 8.61 1 8.456 1 12s-.013 3.39.299 3.701c.298.299.302.299 2.453.299H5.65l2.385 1.909c1.312 1.05 2.454 1.944 2.539 1.986a.988.988 0 0 0 1.126-.193c.325-.325.3.323.3-7.702 0-8.023.025-7.377-.299-7.701a.984.984 0 0 0-1.054-.227M10 12v4.921l-1.749-1.4c-1.228-.983-1.802-1.418-1.927-1.46-.147-.051-.45-.061-1.751-.061H3v-4h1.573c1.301 0 1.604-.01 1.751-.061.125-.042.691-.473 1.917-1.457.956-.768 1.744-1.397 1.749-1.399.005-.002.01 2.211.01 4.917m6.643-3.931C16.291 8.193 16 8.614 16 9c0 .08.03.234.066.343.057.174.21.342 1.288 1.427L18.577 12l-1.223 1.23c-1.078 1.085-1.231 1.253-1.288 1.427-.13.389-.045.766.233 1.044s.655.363 1.044.233c.174-.057.342-.21 1.427-1.288L20 13.423l1.23 1.223c1.085 1.078 1.253 1.231 1.427 1.288.389.13.766.045 1.044-.233s.363-.655.233-1.044c-.057-.174-.21-.342-1.288-1.427L21.423 12l1.223-1.23c1.078-1.085 1.231-1.253 1.288-1.427.13-.389.045-.766-.233-1.044s-.655-.363-1.044-.233c-.174.057-.342.21-1.427 1.288L20 10.577l-1.23-1.223c-1.085-1.078-1.253-1.231-1.427-1.288a1.026 1.026 0 0 0-.7.003" fill-rule="evenodd" stroke="none"/></svg>