<svg xmlns="http://www.w3.org/2000/svg" viewBox="0 0 24 24"><path d="M3.065.824C1.739 1.065.624 2.052.172 3.386l-.145.427V25.2l.145.427c.208.61.489 1.06.949 1.519.612.611 1.255.936 2.107 1.066.258.04 4.291.053 13.199.043l12.826-.015.307-.117c.856-.327 1.453-1.011 1.634-1.872.042-.202.059-2.86.059-9.243 0-9.946.02-9.381-.353-10.003-.321-.535-.701-.857-1.294-1.097l-.299-.121-12.965-.027-12.964-.027-.261-.161a1.374 1.374 0 0 1-.422-.423c-.141-.226-.162-.311-.162-.642 0-.332.021-.416.162-.643.1-.162.26-.323.422-.423l.261-.161 10.991-.027 10.991-.026.213-.115a1.24 1.24 0 0 0 .528-1.663 1.15 1.15 0 0 0-.747-.627C25.001.716 3.651.718 3.065.824M23.947 15.33c.786.398 1.201 1.283.99 2.114-.285 1.124-1.5 1.732-2.556 1.279-.32-.137-.758-.547-.915-.857a1.99 1.99 0 0 1-.189-1.13c.114-.699.502-1.185 1.172-1.468.425-.179 1.076-.152 1.498.062" fill-rule="evenodd"/></svg>