<svg xmlns="http://www.w3.org/2000/svg" viewBox="0 0 24 24"><path d="M12.717.47c1.917-1.005 4.356-.344 5.427 1.453l10.249 16.82c.226.502.324.91.352 1.334.057.991-.31 1.954-1.029 2.696A4.096 4.096 0 0 1 24.967 24H4.33a4.656 4.656 0 0 1-1.283-.264c-2.044-.78-3.03-2.973-2.2-4.874L11.167 1.91a3.755 3.755 0 0 1 1.55-1.44Zm1.931 15.893c-.677 0-1.24.529-1.24 1.165 0 .632.563 1.162 1.24 1.162s1.226-.53 1.226-1.177c0-.633-.55-1.15-1.226-1.15Zm0-8.242c-.677 0-1.24.513-1.24 1.149v3.738c0 .634.563 1.164 1.24 1.164s1.226-.53 1.226-1.164V9.27c0-.636-.55-1.15-1.226-1.15Z"/></svg>