<svg xmlns="http://www.w3.org/2000/svg" viewBox="0 0 24 24" stroke="currentColor" stroke-width="2" stroke-linecap="round" stroke-linejoin="round" class="feather feather-watch"><path d="M9.24.061C8.133.302 7.294 1.069 6.963 2.14c-.066.214-.128.721-.261 2.153l-.174 1.873-.315.327c-1.221 1.264-1.979 2.911-2.172 4.715-.244 2.289.587 4.676 2.204 6.332l.274.281.161 1.759c.088.968.179 1.863.202 1.99.194 1.074 1.024 1.982 2.119 2.316.296.09.327.091 2.818.104 1.679.009 2.612-.001 2.799-.03a3.018 3.018 0 0 0 2.405-2.058c.085-.269.128-.613.274-2.195l.174-1.876.278-.285a7.977 7.977 0 0 0 .009-11.086l-.27-.28-.165-1.82c-.09-1.001-.191-1.932-.223-2.07A3.022 3.022 0 0 0 15.542.338C14.871.009 15.026.024 12.1.014 9.982.006 9.452.015 9.24.061m5.364 2.031c.08.039.203.128.274.198.249.243.277.351.379 1.422.052.543.09.992.086.998a3.008 3.008 0 0 1-.346-.126 8.072 8.072 0 0 0-6.032.014c-.221.091-.285.104-.285.06 0-.032.037-.468.082-.968.093-1.022.158-1.235.443-1.461.292-.231.243-.227 2.855-.218 2.219.008 2.411.014 2.544.081m-1.44 4.024a6.012 6.012 0 0 1 1.597.568c1.64.848 2.781 2.391 3.146 4.256.108.55.097 1.663-.022 2.22a6.05 6.05 0 0 1-.519 1.508 6.02 6.02 0 0 1-4.306 3.237c-.552.103-1.568.103-2.12 0a6.036 6.036 0 0 1-4.845-4.845c-.103-.552-.103-1.568 0-2.12a6.027 6.027 0 0 1 3.24-4.308c.621-.311 1.208-.483 2.085-.608.281-.041 1.374.017 1.744.092m-1.521 1.953a1.066 1.066 0 0 0-.577.591c-.057.168-.066.413-.066 1.84 0 1.422.009 1.673.066 1.843.057.17.186.318.929 1.068.97.979 1.097 1.069 1.503 1.069.577-.001.983-.411.981-.989-.001-.38-.092-.519-.821-1.252L13 11.577v-1.361c0-1.555-.012-1.63-.299-1.917a.998.998 0 0 0-1.058-.23M9.575 19.623c1.755.555 3.785.474 5.455-.218.224-.093.29-.107.29-.063 0 .032-.037.468-.082.968-.074.812-.094.934-.19 1.13a1.012 1.012 0 0 1-.608.52c-.105.028-.953.039-2.529.031-2.353-.011-2.372-.012-2.535-.099a1.209 1.209 0 0 1-.481-.517c-.048-.115-.214-1.63-.215-1.963v-.127l.285.117c.157.065.432.164.61.221" fill-rule="evenodd" stroke="none"/></svg>