<svg xmlns="http://www.w3.org/2000/svg" viewBox="0 0 24 24"><path d="M10.82 4.042a17.323 17.323 0 0 0-7.283 2.219C2.285 6.977.712 8.184.524 8.571c-.099.206-.114.601-.029.803.079.189.291.417.481.517.197.103.613.119.819.032.075-.031.363-.244.64-.472 2.277-1.87 4.917-2.994 7.885-3.357.808-.099 2.552-.099 3.36 0 2.982.364 5.679 1.518 7.927 3.39.543.452.626.494.973.494.329 0 .534-.09.739-.323.18-.205.241-.37.241-.655 0-.437-.133-.621-.878-1.218a17.088 17.088 0 0 0-8.905-3.684c-.686-.074-2.31-.105-2.957-.056m.24 5.002a12.242 12.242 0 0 0-6.487 2.571c-.435.347-.553.545-.552.925.001.316.07.494.269.698a.907.907 0 0 0 .71.296c.307 0 .458-.067.84-.376a11.846 11.846 0 0 1 1.521-.992c2.883-1.535 6.42-1.543 9.319-.02.474.249 1.171.702 1.56 1.014.384.308.534.374.84.374a.907.907 0 0 0 .71-.296c.199-.204.268-.382.269-.698.001-.235-.017-.31-.11-.47-.262-.445-1.749-1.447-2.955-1.991a12.12 12.12 0 0 0-5.934-1.035m.18 4.998a7.261 7.261 0 0 0-3.068 1.112c-.407.268-.58.496-.631.832-.068.454.255.941.711 1.073.352.103.617.036 1.061-.268.094-.065.355-.206.58-.313a4.983 4.983 0 0 1 4.695.246c.588.363.611.373.891.371a.972.972 0 0 0 .987-.885c.05-.423-.143-.746-.638-1.067a7.082 7.082 0 0 0-2.708-1.049c-.423-.072-1.48-.102-1.88-.052m.403 5.024c-.355.131-.643.549-.643.934 0 .407.292.811.679.94a.99.99 0 0 0 1.226-.518c.232-.499.028-1.067-.478-1.329-.178-.092-.57-.105-.784-.027" fill-rule="evenodd"/></svg>