<svg xmlns="http://www.w3.org/2000/svg" width="264.53000000000003" height="35" viewBox="0 0 264.53000000000003 35"><rect class="svg__rect" x="0" y="0" width="115.31" height="35" fill="#78ECF5"/><rect class="svg__rect" x="113.31" y="0" width="151.22000000000003" height="35" fill="#00C1D6"/><path class="svg__text" d="M15.69 22L14.22 22L14.22 13.47L16.14 13.47L18.60 20.01L21.06 13.47L22.97 13.47L22.97 22L21.49 22L21.49 19.19L21.64 15.43L19.12 22L18.06 22L15.55 15.43L15.69 19.19L15.69 22ZM28.49 22L26.95 22L30.17 13.47L31.50 13.47L34.73 22L33.18 22L32.49 20.01L29.18 20.01L28.49 22ZM30.83 15.28L29.60 18.82L32.07 18.82L30.83 15.28ZM41.14 22L38.69 22L38.69 13.47L41.21 13.47Q42.34 13.47 43.21 13.97Q44.09 14.48 44.57 15.40Q45.05 16.33 45.05 17.52L45.05 17.52L45.05 17.95Q45.05 19.16 44.57 20.08Q44.08 21.00 43.19 21.50Q42.30 22 41.14 22L41.14 22ZM40.17 14.66L40.17 20.82L41.14 20.82Q42.30 20.82 42.93 20.09Q43.55 19.36 43.56 17.99L43.56 17.99L43.56 17.52Q43.56 16.13 42.96 15.40Q42.35 14.66 41.21 14.66L41.21 14.66L40.17 14.66ZM55.09 22L49.51 22L49.51 13.47L55.05 13.47L55.05 14.66L51.00 14.66L51.00 17.02L54.50 17.02L54.50 18.19L51.00 18.19L51.00 20.82L55.09 20.82L55.09 22ZM66.65 22L64.68 13.47L66.15 13.47L67.47 19.88L69.10 13.47L70.34 13.47L71.96 19.89L73.27 13.47L74.74 13.47L72.77 22L71.35 22L69.73 15.77L68.07 22L66.65 22ZM80.38 22L78.90 22L78.90 13.47L80.38 13.47L80.38 22ZM86.87 14.66L84.23 14.66L84.23 13.47L91.00 13.47L91.00 14.66L88.34 14.66L88.34 22L86.87 22L86.87 14.66ZM96.24 22L94.75 22L94.75 13.47L96.24 13.47L96.24 17.02L100.05 17.02L100.05 13.47L101.53 13.47L101.53 22L100.05 22L100.05 18.21L96.24 18.21L96.24 22Z" fill="#FFFFFF"/><path class="svg__text" d="M129.29 15.48L126.71 15.48L126.71 13.60L134.23 13.60L134.23 15.48L131.66 15.48L131.66 22L129.29 22L129.29 15.48ZM140.02 22L137.59 22L141.30 13.60L143.65 13.60L147.36 22L144.89 22L144.23 20.37L140.68 20.37L140.02 22ZM142.46 15.93L141.37 18.61L143.53 18.61L142.46 15.93ZM153.89 22L151.52 22L151.52 13.60L153.89 13.60L153.89 22ZM165.45 22L159.07 22L159.07 13.60L161.45 13.60L161.45 20.11L165.45 20.11L165.45 22ZM171.95 22L169.23 13.60L171.68 13.60L173.37 18.96L175.14 13.60L177.33 13.60L179.02 19.01L180.78 13.60L183.05 13.60L180.33 22L177.78 22L176.18 16.89L174.50 22L171.95 22ZM189.94 22L187.56 22L187.56 13.60L189.94 13.60L189.94 22ZM197.45 22L195.12 22L195.12 13.60L197.07 13.60L200.78 18.07L200.78 13.60L203.11 13.60L203.11 22L201.16 22L197.45 17.52L197.45 22ZM212.24 22L208.27 22L208.27 13.60L212.24 13.60Q213.62 13.60 214.69 14.12Q215.76 14.63 216.35 15.58Q216.94 16.53 216.94 17.80L216.94 17.80Q216.94 19.07 216.35 20.02Q215.76 20.97 214.69 21.48Q213.62 22 212.24 22L212.24 22ZM210.65 15.50L210.65 20.10L212.15 20.10Q213.23 20.10 213.88 19.49Q214.53 18.88 214.53 17.80L214.53 17.80Q214.53 16.72 213.88 16.11Q213.23 15.50 212.15 15.50L212.15 15.50L210.65 15.50ZM221.24 17.80L221.24 17.80Q221.24 16.54 221.83 15.54Q222.43 14.55 223.48 13.99Q224.53 13.43 225.85 13.43L225.85 13.43Q227.01 13.43 227.93 13.84Q228.85 14.25 229.47 15.02L229.47 15.02L227.96 16.39Q227.14 15.40 225.98 15.40L225.98 15.40Q225.29 15.40 224.76 15.70Q224.22 16 223.93 16.54Q223.63 17.09 223.63 17.80L223.63 17.80Q223.63 18.51 223.93 19.05Q224.22 19.60 224.76 19.90Q225.29 20.20 225.98 20.20L225.98 20.20Q227.14 20.20 227.96 19.22L227.96 19.22L229.47 20.58Q228.86 21.35 227.93 21.76Q227.01 22.17 225.85 22.17L225.85 22.17Q224.53 22.17 223.48 21.61Q222.43 21.05 221.83 20.05Q221.24 19.06 221.24 17.80ZM233.42 21.24L233.42 21.24L234.20 19.49Q234.76 19.86 235.50 20.09Q236.25 20.32 236.97 20.32L236.97 20.32Q238.33 20.32 238.34 19.64L238.34 19.64Q238.34 19.28 237.95 19.11Q237.56 18.93 236.69 18.74L236.69 18.74Q235.74 18.53 235.11 18.30Q234.47 18.06 234.02 17.55Q233.56 17.03 233.56 16.16L233.56 16.16Q233.56 15.39 233.98 14.77Q234.40 14.15 235.24 13.79Q236.07 13.43 237.28 13.43L237.28 13.43Q238.11 13.43 238.91 13.62Q239.72 13.80 240.33 14.17L240.33 14.17L239.60 15.93Q238.40 15.28 237.27 15.28L237.27 15.28Q236.56 15.28 236.24 15.49Q235.91 15.70 235.91 16.04L235.91 16.04Q235.91 16.37 236.30 16.54Q236.68 16.71 237.53 16.89L237.53 16.89Q238.49 17.10 239.12 17.33Q239.75 17.56 240.21 18.07Q240.68 18.58 240.68 19.46L240.68 19.46Q240.68 20.21 240.26 20.83Q239.84 21.44 239.00 21.80Q238.16 22.17 236.96 22.17L236.96 22.17Q235.94 22.17 234.98 21.92Q234.02 21.67 233.42 21.24ZM244.67 21.24L244.67 21.24L245.45 19.49Q246.01 19.86 246.75 20.09Q247.50 20.32 248.22 20.32L248.22 20.32Q249.58 20.32 249.59 19.64L249.59 19.64Q249.59 19.28 249.20 19.11Q248.81 18.93 247.94 18.74L247.94 18.74Q246.99 18.53 246.36 18.30Q245.72 18.06 245.27 17.55Q244.81 17.03 244.81 16.16L244.81 16.16Q244.81 15.39 245.23 14.77Q245.65 14.15 246.49 13.79Q247.32 13.43 248.53 13.43L248.53 13.43Q249.36 13.43 250.16 13.62Q250.97 13.80 251.58 14.17L251.58 14.17L250.85 15.93Q249.65 15.28 248.52 15.28L248.52 15.28Q247.81 15.28 247.49 15.49Q247.16 15.70 247.16 16.04L247.16 16.04Q247.16 16.37 247.55 16.54Q247.93 16.71 248.78 16.89L248.78 16.89Q249.74 17.10 250.37 17.33Q251.00 17.56 251.46 18.07Q251.93 18.58 251.93 19.46L251.93 19.46Q251.93 20.21 251.51 20.83Q251.09 21.44 250.25 21.80Q249.41 22.17 248.21 22.17L248.21 22.17Q247.19 22.17 246.23 21.92Q245.27 21.67 244.67 21.24Z" fill="#FFFFFF" x="126.31"/></svg>