<svg xmlns="http://www.w3.org/2000/svg" width="403.42" height="35" viewBox="0 0 403.42 35"><rect class="svg__rect" x="0" y="0" width="115.31" height="35" fill="#EA4560"/><rect class="svg__rect" x="113.31" y="0" width="290.11" height="35" fill="#C13B3A"/><path class="svg__text" d="M15.69 22L14.22 22L14.22 13.47L16.14 13.47L18.60 20.01L21.06 13.47L22.97 13.47L22.97 22L21.49 22L21.49 19.19L21.64 15.43L19.12 22L18.06 22L15.55 15.43L15.69 19.19L15.69 22ZM28.49 22L26.95 22L30.17 13.47L31.50 13.47L34.73 22L33.18 22L32.49 20.01L29.18 20.01L28.49 22ZM30.83 15.28L29.60 18.82L32.07 18.82L30.83 15.28ZM41.14 22L38.69 22L38.69 13.47L41.21 13.47Q42.34 13.47 43.21 13.97Q44.09 14.48 44.57 15.40Q45.05 16.33 45.05 17.52L45.05 17.52L45.05 17.95Q45.05 19.16 44.57 20.08Q44.08 21.00 43.19 21.50Q42.30 22 41.14 22L41.14 22ZM40.17 14.66L40.17 20.82L41.14 20.82Q42.30 20.82 42.93 20.09Q43.55 19.36 43.56 17.99L43.56 17.99L43.56 17.52Q43.56 16.13 42.96 15.40Q42.35 14.66 41.21 14.66L41.21 14.66L40.17 14.66ZM55.09 22L49.51 22L49.51 13.47L55.05 13.47L55.05 14.66L51.00 14.66L51.00 17.02L54.50 17.02L54.50 18.19L51.00 18.19L51.00 20.82L55.09 20.82L55.09 22ZM66.65 22L64.68 13.47L66.15 13.47L67.47 19.88L69.10 13.47L70.34 13.47L71.96 19.89L73.27 13.47L74.74 13.47L72.77 22L71.35 22L69.73 15.77L68.07 22L66.65 22ZM80.38 22L78.90 22L78.90 13.47L80.38 13.47L80.38 22ZM86.87 14.66L84.23 14.66L84.23 13.47L91.00 13.47L91.00 14.66L88.34 14.66L88.34 22L86.87 22L86.87 14.66ZM96.24 22L94.75 22L94.75 13.47L96.24 13.47L96.24 17.02L100.05 17.02L100.05 13.47L101.53 13.47L101.53 22L100.05 22L100.05 18.21L96.24 18.21L96.24 22Z" fill="#FFFFFF"/><path class="svg__text" d="M126.91 21.24L126.91 21.24L127.69 19.49Q128.25 19.86 129.00 20.09Q129.74 20.32 130.46 20.32L130.46 20.32Q131.83 20.32 131.83 19.64L131.83 19.64Q131.83 19.28 131.44 19.11Q131.05 18.93 130.19 18.74L130.19 18.74Q129.24 18.53 128.60 18.30Q127.97 18.06 127.51 17.55Q127.06 17.03 127.06 16.16L127.06 16.16Q127.06 15.39 127.48 14.77Q127.90 14.15 128.73 13.79Q129.57 13.43 130.77 13.43L130.77 13.43Q131.60 13.43 132.41 13.62Q133.21 13.80 133.83 14.17L133.83 14.17L133.09 15.93Q131.89 15.28 130.76 15.28L130.76 15.28Q130.05 15.28 129.73 15.49Q129.41 15.70 129.41 16.04L129.41 16.04Q129.41 16.37 129.79 16.54Q130.18 16.71 131.03 16.89L131.03 16.89Q131.99 17.10 132.62 17.33Q133.25 17.56 133.71 18.07Q134.17 18.58 134.17 19.46L134.17 19.46Q134.17 20.21 133.75 20.83Q133.33 21.44 132.49 21.80Q131.65 22.17 130.45 22.17L130.45 22.17Q129.43 22.17 128.47 21.92Q127.51 21.67 126.91 21.24ZM140.54 15.48L137.96 15.48L137.96 13.60L145.48 13.60L145.48 15.48L142.91 15.48L142.91 22L140.54 22L140.54 15.48ZM149.42 17.80L149.42 17.80Q149.42 16.55 150.03 15.55Q150.63 14.56 151.69 14.00Q152.76 13.43 154.09 13.43L154.09 13.43Q155.42 13.43 156.48 14.00Q157.54 14.56 158.15 15.55Q158.76 16.55 158.76 17.80L158.76 17.80Q158.76 19.05 158.15 20.04Q157.54 21.04 156.48 21.60Q155.42 22.17 154.09 22.17L154.09 22.17Q152.76 22.17 151.69 21.60Q150.63 21.04 150.03 20.04Q149.42 19.05 149.42 17.80ZM151.82 17.80L151.82 17.80Q151.82 18.51 152.12 19.05Q152.42 19.60 152.94 19.90Q153.45 20.20 154.09 20.20L154.09 20.20Q154.73 20.20 155.24 19.90Q155.76 19.60 156.06 19.05Q156.36 18.51 156.36 17.80L156.36 17.80Q156.36 17.09 156.06 16.54Q155.76 16 155.24 15.70Q154.73 15.40 154.09 15.40L154.09 15.40Q153.45 15.40 152.94 15.70Q152.42 16 152.12 16.54Q151.82 17.09 151.82 17.80ZM165.87 22L163.49 22L163.49 13.60L167.33 13.60Q168.47 13.60 169.31 13.98Q170.15 14.35 170.61 15.06Q171.06 15.76 171.06 16.71L171.06 16.71Q171.06 17.62 170.63 18.30Q170.21 18.98 169.42 19.36L169.42 19.36L171.23 22L168.68 22L167.16 19.77L165.87 19.77L165.87 22ZM165.87 15.47L165.87 17.93L167.18 17.93Q167.92 17.93 168.29 17.61Q168.66 17.29 168.66 16.71L168.66 16.71Q168.66 16.12 168.29 15.79Q167.92 15.47 167.18 15.47L167.18 15.47L165.87 15.47ZM177.98 18.95L174.77 13.60L177.28 13.60L179.27 16.94L181.26 13.60L183.57 13.60L180.35 18.99L180.35 22L177.98 22L177.98 18.95ZM192.19 22L187.65 22L187.65 13.60L191.95 13.60Q193.56 13.60 194.40 14.19Q195.24 14.79 195.24 15.79L195.24 15.79Q195.24 16.39 194.94 16.87Q194.65 17.34 194.11 17.62L194.11 17.62Q194.83 17.87 195.24 18.41Q195.64 18.94 195.64 19.70L195.64 19.70Q195.64 20.80 194.75 21.40Q193.87 22 192.19 22L192.19 22ZM190.01 18.58L190.01 20.28L192.00 20.28Q193.25 20.28 193.25 19.43L193.25 19.43Q193.25 18.58 192.00 18.58L192.00 18.58L190.01 18.58ZM190.01 15.31L190.01 16.94L191.63 16.94Q192.84 16.94 192.84 16.12L192.84 16.12Q192.84 15.31 191.63 15.31L191.63 15.31L190.01 15.31ZM199.93 17.80L199.93 17.80Q199.93 16.55 200.53 15.55Q201.14 14.56 202.20 14.00Q203.27 13.43 204.60 13.43L204.60 13.43Q205.93 13.43 206.99 14.00Q208.05 14.56 208.66 15.55Q209.27 16.55 209.27 17.80L209.27 17.80Q209.27 19.05 208.66 20.04Q208.05 21.04 206.99 21.60Q205.93 22.17 204.60 22.17L204.60 22.17Q203.27 22.17 202.20 21.60Q201.14 21.04 200.53 20.04Q199.93 19.05 199.93 17.80ZM202.33 17.80L202.33 17.80Q202.33 18.51 202.63 19.05Q202.93 19.60 203.45 19.90Q203.96 20.20 204.60 20.20L204.60 20.20Q205.23 20.20 205.75 19.90Q206.27 19.60 206.56 19.05Q206.86 18.51 206.86 17.80L206.86 17.80Q206.86 17.09 206.56 16.54Q206.27 16 205.75 15.70Q205.23 15.40 204.60 15.40L204.60 15.40Q203.96 15.40 203.44 15.70Q202.93 16 202.63 16.54Q202.33 17.09 202.33 17.80ZM213.57 17.80L213.57 17.80Q213.57 16.55 214.17 15.55Q214.77 14.56 215.84 14.00Q216.90 13.43 218.23 13.43L218.23 13.43Q219.56 13.43 220.62 14.00Q221.69 14.56 222.29 15.55Q222.90 16.55 222.90 17.80L222.90 17.80Q222.90 19.05 222.29 20.04Q221.69 21.04 220.63 21.60Q219.57 22.17 218.23 22.17L218.23 22.17Q216.90 22.17 215.84 21.60Q214.77 21.04 214.17 20.04Q213.57 19.05 213.57 17.80ZM215.96 17.80L215.96 17.80Q215.96 18.51 216.26 19.05Q216.57 19.60 217.08 19.90Q217.60 20.20 218.23 20.20L218.23 20.20Q218.87 20.20 219.38 19.90Q219.90 19.60 220.20 19.05Q220.50 18.51 220.50 17.80L220.50 17.80Q220.50 17.09 220.20 16.54Q219.90 16 219.38 15.70Q218.87 15.40 218.23 15.40L218.23 15.40Q217.59 15.40 217.08 15.70Q216.57 16 216.26 16.54Q215.96 17.09 215.96 17.80ZM229.98 22L227.63 22L227.63 13.60L229.98 13.60L229.98 17.09L233.24 13.60L235.85 13.60L232.42 17.32L236.03 22L233.27 22L230.87 18.95L229.98 19.90L229.98 22ZM248.53 22L246.10 22L249.81 13.60L252.16 13.60L255.87 22L253.40 22L252.74 20.37L249.19 20.37L248.53 22ZM250.97 15.93L249.88 18.61L252.04 18.61L250.97 15.93ZM261.82 15.48L259.23 15.48L259.23 13.60L266.76 13.60L266.76 15.48L264.19 15.48L264.19 22L261.82 22L261.82 15.48ZM270.70 17.80L270.70 17.80Q270.70 16.55 271.30 15.55Q271.91 14.56 272.97 14.00Q274.04 13.43 275.37 13.43L275.37 13.43Q276.70 13.43 277.76 14.00Q278.82 14.56 279.43 15.55Q280.04 16.55 280.04 17.80L280.04 17.80Q280.04 19.05 279.43 20.04Q278.82 21.04 277.76 21.60Q276.70 22.17 275.37 22.17L275.37 22.17Q274.04 22.17 272.97 21.60Q271.91 21.04 271.30 20.04Q270.70 19.05 270.70 17.80ZM273.10 17.80L273.10 17.80Q273.10 18.51 273.40 19.05Q273.70 19.60 274.22 19.90Q274.73 20.20 275.37 20.20L275.37 20.20Q276.00 20.20 276.52 19.90Q277.04 19.60 277.33 19.05Q277.63 18.51 277.63 17.80L277.63 17.80Q277.63 17.09 277.33 16.54Q277.04 16 276.52 15.70Q276.00 15.40 275.37 15.40L275.37 15.40Q274.73 15.40 274.21 15.70Q273.70 16 273.40 16.54Q273.10 17.09 273.10 17.80ZM286.96 22L284.76 22L284.76 13.60L286.72 13.60L289.67 18.45L292.56 13.60L294.51 13.60L294.53 22L292.35 22L292.33 17.55L290.17 21.17L289.11 21.17L286.96 17.67L286.96 22ZM302.07 22L299.69 22L299.69 13.60L302.07 13.60L302.07 22ZM306.82 17.80L306.82 17.80Q306.82 16.54 307.42 15.54Q308.01 14.55 309.07 13.99Q310.12 13.43 311.44 13.43L311.44 13.43Q312.59 13.43 313.51 13.84Q314.44 14.25 315.05 15.02L315.05 15.02L313.54 16.39Q312.72 15.40 311.56 15.40L311.56 15.40Q310.87 15.40 310.34 15.70Q309.81 16 309.51 16.54Q309.21 17.09 309.21 17.80L309.21 17.80Q309.21 18.51 309.51 19.05Q309.81 19.60 310.34 19.90Q310.87 20.20 311.56 20.20L311.56 20.20Q312.72 20.20 313.54 19.22L313.54 19.22L315.05 20.58Q314.44 21.35 313.52 21.76Q312.59 22.17 311.44 22.17L311.44 22.17Q310.12 22.17 309.07 21.61Q308.01 21.05 307.42 20.05Q306.82 19.06 306.82 17.80ZM330.53 22L326.56 22L326.56 13.60L330.53 13.60Q331.91 13.60 332.98 14.12Q334.05 14.63 334.64 15.58Q335.22 16.53 335.22 17.80L335.22 17.80Q335.22 19.07 334.64 20.02Q334.05 20.97 332.98 21.48Q331.91 22 330.53 22L330.53 22ZM328.94 15.50L328.94 20.10L330.44 20.10Q331.52 20.10 332.17 19.49Q332.82 18.88 332.82 17.80L332.82 17.80Q332.82 16.72 332.17 16.11Q331.52 15.50 330.44 15.50L330.44 15.50L328.94 15.50ZM346.70 22L339.95 22L339.95 13.60L346.54 13.60L346.54 15.44L342.31 15.44L342.31 16.85L346.04 16.85L346.04 18.63L342.31 18.63L342.31 20.17L346.70 20.17L346.70 22ZM350.92 21.24L350.92 21.24L351.70 19.49Q352.26 19.86 353.00 20.09Q353.75 20.32 354.47 20.32L354.47 20.32Q355.83 20.32 355.84 19.64L355.84 19.64Q355.84 19.28 355.45 19.11Q355.06 18.93 354.19 18.74L354.19 18.74Q353.24 18.53 352.61 18.30Q351.97 18.06 351.52 17.55Q351.06 17.03 351.06 16.16L351.06 16.16Q351.06 15.39 351.48 14.77Q351.90 14.15 352.74 13.79Q353.57 13.43 354.78 13.43L354.78 13.43Q355.60 13.43 356.41 13.62Q357.21 13.80 357.83 14.17L357.83 14.17L357.10 15.93Q355.90 15.28 354.77 15.28L354.77 15.28Q354.06 15.28 353.73 15.49Q353.41 15.70 353.41 16.04L353.41 16.04Q353.41 16.37 353.80 16.54Q354.18 16.71 355.03 16.89L355.03 16.89Q355.99 17.10 356.62 17.33Q357.25 17.56 357.71 18.07Q358.18 18.58 358.18 19.46L358.18 19.46Q358.18 20.21 357.76 20.83Q357.34 21.44 356.50 21.80Q355.66 22.17 354.45 22.17L354.45 22.17Q353.44 22.17 352.47 21.92Q351.51 21.67 350.92 21.24ZM365.13 22L362.75 22L362.75 13.60L365.13 13.60L365.13 22ZM369.88 17.80L369.88 17.80Q369.88 16.54 370.47 15.54Q371.07 14.55 372.14 13.99Q373.21 13.43 374.55 13.43L374.55 13.43Q375.73 13.43 376.67 13.83Q377.61 14.22 378.23 14.97L378.23 14.97L376.71 16.33Q375.87 15.40 374.69 15.40L374.69 15.40Q374.68 15.40 374.68 15.40L374.68 15.40Q373.60 15.40 372.94 16.06Q372.27 16.71 372.27 17.80L372.27 17.80Q372.27 18.50 372.58 19.04Q372.88 19.59 373.42 19.89Q373.95 20.20 374.65 20.20L374.65 20.20Q375.34 20.20 375.94 19.93L375.94 19.93L375.94 17.62L378.03 17.62L378.03 21.10Q377.31 21.61 376.38 21.89Q375.44 22.17 374.51 22.17L374.51 22.17Q373.19 22.17 372.13 21.61Q371.07 21.05 370.47 20.05Q369.88 19.06 369.88 17.80ZM385.36 22L383.03 22L383.03 13.60L384.98 13.60L388.69 18.07L388.69 13.60L391.02 13.60L391.02 22L389.07 22L385.36 17.52L385.36 22Z" fill="#FFFFFF" x="126.31"/></svg>